<svg width="252" height="242" viewBox="0 0 252 242" fill="none" xmlns="http://www.w3.org/2000/svg">
<g clip-path="url(#clip0_602_6)">
<path fill-rule="evenodd" clip-rule="evenodd" d="M203.571 3.02261C202.098 3.50865 198.723 4.51292 196.071 5.25396C193.42 5.99536 189.97 7.47745 188.406 8.54788C186.842 9.61831 185.292 10.4938 184.961 10.4938C183.922 10.4938 175.56 16.1339 165 23.9578C159.402 28.105 151.929 32.8921 148.393 34.5952C143.926 36.7465 138.375 41.1548 130.205 49.0384C110.908 67.6592 98.7372 79.1289 85.7143 90.9688C78.9375 97.13 69.5357 105.846 64.8214 110.338C51.6389 122.898 38.7197 135.079 31.3504 141.897C25.7886 147.043 24.7732 148.513 25.3068 150.642C25.6596 152.05 25.3029 155.392 24.5139 158.068C23.0071 163.179 21.1643 164.383 15.8596 163.725C13.7654 163.466 11.6146 164.833 6.56714 169.633C2.95536 173.068 0 176.38 0 176.994C0 178.531 20.875 201.485 42.5268 223.756C55.4914 237.092 61.2175 242.276 62.9704 242.264C64.3179 242.255 67.5472 240.271 70.2025 237.82C74.6364 233.727 75 232.991 75 228.109C75 223.095 75.1889 222.747 78.7157 221.271C80.7593 220.416 83.2904 219.703 84.3407 219.686C89.6804 219.602 106.22 205.981 127.5 184.144C131.33 180.213 137.116 174.726 140.357 171.949C153.277 160.881 205.405 110.081 213.214 100.947C214.688 99.2247 218.878 94.4308 222.525 90.2943C237.698 73.0912 250.678 44.4509 250.703 28.12C250.718 17.8828 248.487 11.6998 243.639 8.54717C233.54 1.98079 233.251 1.90318 219.343 2.02442C212.141 2.08737 205.045 2.53621 203.571 3.02261ZM234.215 8.96454C241.68 12.8933 243.246 14.7892 244.904 21.9009C247.81 34.3642 244.035 46.9258 230.598 69.5054C227.043 75.4795 215.348 90.8915 212.699 93.0928C211.576 94.0259 210.348 93.2935 207.147 89.7828C204.886 87.3033 199.613 81.606 195.43 77.1218C184.799 65.7269 181.071 61.3321 181.071 60.1927C181.071 58.9581 207.616 32.8138 214.821 26.9516C220.744 22.1327 224.97 19.778 229.821 18.5938L233.036 17.8088L228.214 15.2727C224.154 13.1372 221.783 12.7291 213.198 12.6883C203.982 12.6444 202.368 12.9505 196.374 15.8785C192.728 17.66 183.606 23.6888 176.102 29.2763C163.325 38.7911 162.338 39.3251 160.541 37.6964C159.485 36.74 158.887 35.5287 159.21 35.0044C160.011 33.7075 175.294 22.5139 181.69 18.5409C198.586 8.0436 202.892 6.6849 220.287 6.36266C227.726 6.22497 229.717 6.59692 234.215 8.96454ZM166.898 52.0702C173.934 59.5943 183.47 70.0955 188.09 75.4065C192.709 80.7176 199.07 87.8276 202.224 91.2066C207.104 96.4333 207.791 97.6657 206.831 99.4622C204.358 104.091 205.498 105.129 174.518 70.0315C150.053 42.3132 149.617 41.7549 151.084 39.9846C151.811 39.1076 152.788 38.3902 153.255 38.3902C153.723 38.3902 159.861 44.5464 166.898 52.0702ZM148.895 46.7055C150.268 48.3285 154.091 52.5573 157.392 56.1033C160.693 59.6494 166.576 66.1675 170.468 70.588C174.359 75.0085 182.676 84.3831 188.95 91.4205C195.224 98.4575 200.357 104.761 200.357 105.428C200.357 106.095 194.692 112.156 187.768 118.897C157.309 148.552 140.333 164.945 133.373 171.422C129.259 175.251 118.499 185.511 109.461 194.222C100.424 202.933 92.4686 210.039 91.7829 210.014C91.0968 209.989 83.645 203.35 75.2229 195.261C62.25 182.802 59.8164 179.958 59.2986 176.652C58.8322 173.672 59.1704 172.276 60.7293 170.751C61.8525 169.651 68.7714 163.2 76.105 156.413C83.4386 149.627 95.2304 138.502 102.309 131.691C109.387 124.879 119.036 115.711 123.75 111.317C133.912 101.846 147.81 88.7778 157.778 79.3231C163.441 73.952 164.754 72.1355 163.981 70.7396C162.449 67.9697 148.986 54.4843 147.753 54.4843C147.145 54.4843 144.389 56.8465 141.628 59.7338C137.398 64.1564 121.197 79.5656 86.25 112.404C62.6572 134.573 41.4068 153.249 39.1197 153.824C34.8825 154.889 33.2143 153.682 33.2143 149.553C33.2143 146.067 35.0914 144.111 64.3889 117.063C81.5347 101.233 99.2536 84.9618 103.764 80.9039C108.274 76.8457 115.58 70.0708 120 65.8481C133.732 52.7282 143.972 43.7549 145.211 43.7549C145.865 43.7549 147.523 45.0828 148.895 46.7055ZM41.25 161.623C48.0154 167.682 53.8022 174.65 53.2547 176.078C52.0947 179.106 45.4118 175.644 41.7614 170.125C39.9725 167.42 37.7996 164.618 36.9332 163.898C36.0664 163.177 35.3571 161.923 35.3571 161.11C35.3571 159.041 38.6914 159.331 41.25 161.623ZM20.7182 174.84C22.3404 176.803 34.0125 188.832 46.6554 201.571C72.4579 227.571 72.7561 228.076 66.0875 234.549L62.5322 238L57.8497 232.882C55.2743 230.067 50.5161 224.867 47.2757 221.326C34.3229 207.172 26.9811 199.38 16.7104 188.885L5.96286 177.904L10.1125 173.648C14.79 168.851 15.8682 168.972 20.7182 174.84ZM60.1079 201.192C69.2547 210.213 71.7857 213.338 71.7857 215.613C71.7857 217.21 71.2629 218.841 70.6239 219.236C69.9697 219.641 64.3654 214.629 57.7972 207.765C48.8143 198.379 46.125 194.897 46.1018 192.625C46.085 191.002 46.6022 189.674 47.2507 189.674C47.8993 189.674 53.685 194.857 60.1079 201.192Z" fill="black"/>
</g>
<defs>
<clipPath id="clip0_602_6">
<rect width="252" height="242" fill="white"/>
</clipPath>
</defs>
</svg>
