<svg width="252" height="242" viewBox="0 0 252 242" fill="none" xmlns="http://www.w3.org/2000/svg">
<g clip-path="url(#clip0_604_74)">
<path d="M183.69 27.2792L155.616 28.7059L168.348 4.96931L183.69 27.2792Z" fill="black"/>
<path d="M236.106 91.2685C243.021 114.607 241.468 139.468 231.695 161.872C221.922 184.276 204.494 202.927 182.201 214.839C159.908 226.752 134.039 231.237 108.735 227.578C83.4315 223.918 60.1557 212.325 42.6338 194.654C25.1119 176.984 14.3571 154.257 12.0909 130.112C9.82459 105.967 16.178 81.8003 30.134 61.48C44.09 41.1596 64.8416 25.8607 89.0672 18.0322C113.293 10.2037 139.591 10.2982 163.754 18.3007" stroke="black" stroke-width="17"/>
<path d="M216.75 70.9172L231.505 66.7253C235.194 71.616 241.097 83.4935 242.571 87.6856L228.554 91.8776C224.865 84.1922 221.176 77.904 216.75 70.9172Z" fill="black"/>
<path d="M205.682 54.8478L218.964 47.8609C223.39 52.7516 228.555 59.7384 230.031 63.2318L215.276 68.1224C210.848 61.1358 210.846 61.8346 205.682 54.8478Z" fill="black"/>
<path d="M189.45 40.1762L200.517 31.0934C205.682 35.2855 213.797 40.8749 216.011 44.368L203.469 52.0535C198.303 46.4643 193.877 44.368 189.45 40.1762Z" fill="black"/>
<path d="M172.32 83.9308C172.32 85.9777 171.961 87.8605 171.242 89.5792C170.539 91.298 169.562 92.7823 168.312 94.0323C167.062 95.2667 165.578 96.2355 163.859 96.9386C162.141 97.6417 160.273 97.9933 158.258 97.9933H141.805C141.367 97.9933 140.961 97.9152 140.586 97.7589C140.211 97.6027 139.883 97.3917 139.602 97.1261C139.336 96.8448 139.125 96.5167 138.969 96.1417C138.812 95.7667 138.734 95.3605 138.734 94.923V67.4542C138.734 67.0323 138.812 66.6339 138.969 66.2589C139.125 65.8839 139.336 65.5558 139.602 65.2745C139.883 64.9933 140.211 64.7745 140.586 64.6183C140.961 64.462 141.367 64.3839 141.805 64.3839H158.258C160.273 64.3839 162.141 64.7355 163.859 65.4386C165.578 66.1417 167.062 67.1183 168.312 68.3683C169.562 69.6027 170.539 71.087 171.242 72.8214C171.961 74.5402 172.32 76.4152 172.32 78.4464V83.9308ZM166.227 78.4464C166.227 77.2589 166.031 76.173 165.641 75.1886C165.266 74.2042 164.727 73.3683 164.023 72.6808C163.32 71.9777 162.477 71.4386 161.492 71.0636C160.523 70.673 159.445 70.4777 158.258 70.4777H144.828V91.8995H158.258C159.445 91.8995 160.523 91.712 161.492 91.337C162.477 90.9464 163.32 90.4073 164.023 89.7198C164.727 89.0167 165.266 88.1808 165.641 87.212C166.031 86.2277 166.227 85.1339 166.227 83.9308V78.4464ZM171.477 142.993H165.383V134.743H143.961V142.993H137.867V126.189C137.867 123.735 138.289 121.478 139.133 119.415C139.977 117.353 141.148 115.579 142.648 114.095C144.148 112.61 145.922 111.454 147.969 110.626C150.016 109.798 152.25 109.384 154.672 109.384H168.406C168.828 109.384 169.227 109.462 169.602 109.618C169.977 109.775 170.305 109.993 170.586 110.275C170.867 110.556 171.086 110.884 171.242 111.259C171.398 111.634 171.477 112.032 171.477 112.454V142.993ZM143.961 128.65H165.383V115.478H154.672C154.484 115.478 154.086 115.509 153.477 115.571C152.883 115.618 152.188 115.751 151.391 115.97C150.609 116.189 149.781 116.525 148.906 116.978C148.031 117.431 147.227 118.056 146.492 118.853C145.758 119.65 145.148 120.65 144.664 121.853C144.195 123.04 143.961 124.485 143.961 126.189V128.65ZM171.805 165.634C171.805 167.025 171.625 168.267 171.266 169.36C170.922 170.454 170.461 171.423 169.883 172.267C169.305 173.095 168.625 173.806 167.844 174.4C167.078 174.993 166.281 175.485 165.453 175.876C164.625 176.251 163.781 176.525 162.922 176.696C162.078 176.868 161.281 176.954 160.531 176.954H158.07V187.993H151.93V176.954H149.492C148.742 176.954 147.938 176.868 147.078 176.696C146.234 176.525 145.391 176.251 144.547 175.876C143.719 175.485 142.922 174.993 142.156 174.4C141.391 173.806 140.711 173.095 140.117 172.267C139.539 171.423 139.07 170.454 138.711 169.36C138.367 168.251 138.195 167.009 138.195 165.634V154.384H144.289V165.634C144.289 166.431 144.414 167.15 144.664 167.79C144.914 168.415 145.266 168.954 145.719 169.407C146.172 169.86 146.719 170.212 147.359 170.462C148.016 170.696 148.742 170.814 149.539 170.814H160.531C161.109 170.72 161.703 170.603 162.312 170.462C162.922 170.306 163.477 170.048 163.977 169.689C164.477 169.329 164.891 168.829 165.219 168.189C165.547 167.548 165.711 166.696 165.711 165.634V154.384H171.805V165.634Z" fill="black"/>
<path d="M99.8438 170.993H81.4922V88.4464H64.9688V70.1652H99.8438V170.993Z" fill="black"/>
</g>
<defs>
<clipPath id="clip0_604_74">
<rect width="252" height="242" fill="white"/>
</clipPath>
</defs>
</svg>
