<svg width="1024" height="702" viewBox="0 0 1024 702" fill="none" xmlns="http://www.w3.org/2000/svg">
<path d="M360.67 193.842L431.415 95.3448L509.755 90.3849L592.357 179.173L598.398 274.585L527.542 371.277L449.196 376.237L366.711 289.253L360.67 193.842Z" fill="#E9AE6C" stroke="black"/>
<path d="M400.186 193.073L431.743 98.9526L508.008 94.1241L551.184 183.514L555.627 253.696L508.766 312.596L456.673 315.894L404.63 263.262L400.186 193.073Z" fill="#E9AE6C" stroke="black"/>
<path d="M439.476 188.749L458.734 108.129L484.275 106.512L515.415 183.946L518.145 227.072L494.386 264.522L468.634 266.153L442.208 231.889L439.476 188.749Z" fill="#E9AE6C" stroke="black"/>
<path d="M568.426 187.766L567.694 176.205L571.083 175.99C572.127 175.924 573.066 176.088 573.895 176.482C574.726 176.875 575.386 177.469 575.871 178.262C576.364 179.055 576.645 179.983 576.718 181.047L576.765 181.785C576.834 182.876 576.675 183.845 576.288 184.694C575.904 185.542 575.321 186.211 574.535 186.702C573.754 187.193 572.826 187.477 571.75 187.556L568.426 187.766ZM569.356 177.359L569.929 186.42L571.596 186.314C572.817 186.237 573.742 185.811 574.371 185.038C575.008 184.264 575.282 183.202 575.196 181.853L575.153 181.178C575.07 179.865 574.685 178.866 573.995 178.181C573.311 177.491 572.381 177.178 571.204 177.242L569.356 177.359Z" fill="black"/>
<path d="M380.777 199.647L380.045 188.085L383.434 187.87C384.477 187.804 385.416 187.968 386.246 188.362C387.077 188.756 387.736 189.349 388.222 190.142C388.715 190.935 388.996 191.863 389.069 192.927L389.116 193.665C389.185 194.756 389.026 195.726 388.638 196.574C388.255 197.422 387.672 198.091 386.885 198.582C386.104 199.073 385.177 199.358 384.1 199.436L380.777 199.647ZM381.706 189.239L382.28 198.3L383.946 198.195C385.168 198.117 386.092 197.692 386.722 196.918C387.358 196.145 387.632 195.083 387.547 193.733L387.504 193.058C387.421 191.745 387.035 190.746 386.346 190.062C385.662 189.372 384.732 189.059 383.555 189.122L381.706 189.239Z" fill="black"/>
<path d="M428.782 192.924C428.711 194.156 428.302 195.131 427.552 195.848C426.808 196.56 425.781 196.957 424.472 197.04C423.055 197.129 421.885 196.712 420.965 195.787C420.051 194.861 419.542 193.578 419.439 191.937L419.368 190.825C419.3 189.751 419.437 188.793 419.782 187.953C420.132 187.112 420.659 186.452 421.363 185.971C422.065 185.486 422.898 185.212 423.86 185.151C425.136 185.071 426.181 185.35 426.994 185.989C427.806 186.624 428.315 187.543 428.517 188.747L426.926 188.848C426.731 187.935 426.388 187.287 425.9 186.904C425.418 186.52 424.765 186.354 423.94 186.406C422.928 186.47 422.157 186.88 421.625 187.637C421.098 188.393 420.878 189.435 420.962 190.764L421.033 191.884C421.112 193.139 421.448 194.119 422.039 194.826C422.63 195.533 423.415 195.855 424.393 195.793C425.273 195.737 425.934 195.504 426.378 195.093C426.826 194.677 427.097 193.987 427.19 193.025L428.782 192.924Z" fill="black"/>
<path d="M537.618 186.033C537.547 187.266 537.138 188.24 536.388 188.958C535.644 189.669 534.618 190.066 533.308 190.149C531.891 190.239 530.721 189.821 529.801 188.896C528.888 187.971 528.379 186.688 528.275 185.046L528.204 183.935C528.136 182.86 528.274 181.903 528.618 181.062C528.968 180.222 529.495 179.561 530.199 179.081C530.901 178.595 531.734 178.322 532.696 178.261C533.973 178.18 535.017 178.459 535.83 179.099C536.643 179.733 537.151 180.652 537.353 181.857L535.762 181.957C535.567 181.045 535.224 180.397 534.737 180.013C534.255 179.629 533.602 179.463 532.776 179.515C531.764 179.579 530.994 179.99 530.461 180.746C529.934 181.502 529.714 182.545 529.798 183.874L529.869 184.993C529.948 186.248 530.284 187.229 530.875 187.935C531.466 188.642 532.251 188.964 533.229 188.902C534.109 188.847 534.771 188.614 535.214 188.203C535.662 187.786 535.933 187.097 536.027 186.134L537.618 186.033Z" fill="black"/>
<path d="M479.163 190.388L474.132 190.707L473.194 193.796L471.561 193.899L475.414 182.047L476.8 181.959L482.124 193.23L480.501 193.333L479.163 190.388ZM474.532 189.422L478.613 189.163L476.227 183.885L474.532 189.422Z" fill="black"/>
<path d="M314 249.211L804.057 182.674L804.057 490.647L314 583.798V249.211Z" fill="#EC6E4D" stroke="black" stroke-width="4"/>
<line x1="424.686" y1="564.882" x2="424.686" y2="674.625" stroke="black" stroke-width="11" stroke-linecap="round"/>
<line x1="481.977" y1="280.149" x2="481.977" y2="483.095" stroke="black" stroke-width="5" stroke-linecap="round"/>
<line x1="2.5" y1="-2.5" x2="357.647" y2="-2.5" transform="matrix(0.98585 -0.167629 0.1672 0.985923 392.389 398.392)" stroke="black" stroke-width="5" stroke-linecap="round"/>
<line x1="662.852" y1="293.565" x2="662.852" y2="422.724" stroke="black" stroke-width="5" stroke-linecap="round"/>
<line x1="572.415" y1="286.858" x2="572.415" y2="462.971" stroke="black" stroke-width="5" stroke-linecap="round"/>
<line x1="710.746" y1="509.219" x2="710.746" y2="582.714" stroke="black" stroke-width="7" stroke-linecap="round"/>
</svg>
