<svg width="78" height="117" viewBox="0 0 78 117" fill="none" xmlns="http://www.w3.org/2000/svg">
<g clip-path="url(#clip0_5_206)">
<path d="M-7.43594 1.1831L7.56602 1.1831L22.5554 20.1792L22.5554 39.1L7.56603 58.1201L-7.43594 58.1201L-22.4355 39.1L-22.4355 20.1792L-7.43594 1.1831Z" fill="#131417"/>
<path d="M31.312 89.228L46.3139 89.228L61.3033 108.224L61.3033 127.145L46.3139 146.165L31.312 146.165L16.3124 127.145L16.3124 108.224L31.312 89.228Z" fill="#131417"/>
<path d="M31.312 -28.1652L46.3139 -28.1652L61.3033 -9.16912L61.3033 9.75172L46.3139 28.7718L31.312 28.7718L16.3124 9.75169L16.3124 -9.16912L31.312 -28.1652Z" fill="#131417"/>
<path d="M-7.43594 59.8797L7.56602 59.8797L22.5554 78.8758L22.5554 97.7966L7.56603 116.817L-7.43594 116.817L-22.4355 97.7966L-22.4355 78.8758L-7.43594 59.8797Z" fill="#131417"/>
<path d="M70.2434 59.8797L85.2453 59.8797L100.235 78.8758L100.235 97.7966L85.2453 116.817L70.2434 116.817L55.2438 97.7966L55.2438 78.8758L70.2434 59.8797Z" fill="#131417"/>
<path d="M70.2434 1.1831L85.2453 1.1831L100.235 20.1792L100.235 39.1L85.2453 58.1201L70.2434 58.1201L55.2438 39.1L55.2438 20.1792L70.2434 1.1831Z" fill="#131417"/>
<path d="M31.312 30.5314L46.3139 30.5314L61.3033 49.5275L61.3033 68.4483L46.3139 87.4684L31.312 87.4684L16.3124 68.4483L16.3124 49.5275L31.312 30.5314Z" fill="#131417"/>
</g>
<defs>
<clipPath id="clip0_5_206">
<rect width="78" height="117" fill="white"/>
</clipPath>
</defs>
</svg>
