<svg width="252" height="242" viewBox="0 0 252 242" fill="none" xmlns="http://www.w3.org/2000/svg">
<path fill-rule="evenodd" clip-rule="evenodd" d="M177.954 74.6719C181.044 73.4752 182.579 70 181.382 66.91C180.186 63.8199 176.71 62.2851 173.62 63.4819C172.605 63.8752 157.815 69.8455 106.655 90.6216C104.825 91.3648 103.56 92.9085 103.101 94.6845C103.048 94.8899 102.974 95.0895 102.877 95.2782C102.806 95.4176 102.738 95.5601 102.674 95.7057C101.014 99.5005 102.744 103.923 106.539 105.583C134.956 118.018 163.021 132.053 184.646 143.469C192.851 147.801 200.115 151.749 206.105 155.08C207.581 155.901 207.426 158.065 205.852 158.676L33.4451 225.573C29.0686 227.271 26.8973 232.196 28.5955 236.572C30.2937 240.949 35.2182 243.12 39.5947 241.422L229.848 167.6C233.535 166.17 235.657 162.449 235.218 158.695C235.109 156.527 234.064 154.424 232.182 153.034C230.425 151.737 225.503 148.802 218.802 145.004C211.879 141.082 202.573 135.972 191.649 130.204C173.667 120.711 151.233 109.401 127.765 98.6559C126.167 97.9241 126.223 95.6279 127.852 94.9668C165.692 79.6068 177.165 74.9777 177.954 74.6719Z" fill="gray"/>
<path d="M7.5 155.299L27.3548 128.5H43.952L63.8068 155.299V182.745L43.9957 208.971H27.3111L7.5 182.745V155.299Z" stroke="gray" stroke-width="15"/>
<path d="M162.64 24.1274L173.072 10.0458H182.013L192.446 24.1274V38.5409L182.033 52.3247H173.052L162.64 38.5409V24.1274Z" stroke="gray" stroke-width="7"/>
<path d="M201.445 89.2081L216.731 68.5753H229.646L244.933 89.2081V110.334L229.678 130.527H216.699L201.445 110.334V89.2081Z" stroke="gray" stroke-width="11"/>
</svg>
