<svg width="252" height="242" viewBox="0 0 252 242" fill="none" xmlns="http://www.w3.org/2000/svg">
<path d="M242.023 85.4167C247.28 64.3492 234.149 42.9222 212.687 37.5664C191.224 32.2107 169.566 44.9569 164.309 66.0243C161.117 78.815 164.732 91.7091 172.842 101.088L172.792 101.075L151.627 199.553L191.22 209.433L219.872 111.637L219.827 111.626C230.54 106.875 238.999 97.5354 242.023 85.4167Z" stroke="black" stroke-width="8" stroke-miterlimit="10" stroke-linejoin="round"/>
<path d="M91.7193 34.2898L147.094 79.63L159.362 135.416L127.9 198.715L85.2118 208.103L30.0976 163.841L17.8303 108.055L49.0763 43.6669L91.7193 34.2898Z" stroke="black" stroke-width="8"/>
<path d="M90.1977 36.8816L122.779 85.3833L131.754 126.2L110.968 164.067L83.5482 170.097L49.8663 144.251L40.8815 103.392L50.1097 45.6969L90.1977 36.8816Z" stroke="black" stroke-width="8"/>
<path d="M77.0905 46.5353L101.639 88.4743L107.039 113.032L97.5055 135.427L85.9353 137.971L68.9368 121.489L63.5109 96.8143L67.1529 48.7206L77.0905 46.5353Z" stroke="black" stroke-width="8"/>
<path d="M133.305 87.2595L131.412 78.6473L134.213 78.0313C135.075 77.8417 135.876 77.8391 136.611 78.0247C137.348 78.21 137.964 78.5687 138.456 79.1011C138.955 79.6321 139.293 80.2938 139.472 81.0853L139.593 81.6354C139.771 82.4479 139.746 83.1995 139.518 83.8906C139.292 84.5809 138.88 85.1634 138.279 85.6388C137.683 86.113 136.941 86.4518 136.052 86.6555L133.305 87.2595ZM132.925 79.2943L134.409 86.0434L135.786 85.7405C136.796 85.5185 137.519 85.0741 137.958 84.4071C138.403 83.7388 138.513 82.9021 138.292 81.8967L138.182 81.3938C137.967 80.416 137.534 79.7151 136.884 79.2919C136.237 78.8636 135.427 78.7524 134.453 78.9584L132.925 79.2943Z" fill="black"/>
<path d="M27.0882 110.617L25.1943 102.004L27.9956 101.388C28.858 101.199 29.6591 101.196 30.3942 101.382C31.1309 101.567 31.7464 101.926 32.2391 102.458C32.738 102.989 33.0754 103.651 33.2543 104.442L33.3753 104.992C33.5539 105.805 33.529 106.557 33.3004 107.248C33.075 107.938 32.6632 108.52 32.062 108.996C31.4655 109.47 30.7237 109.809 29.8351 110.013L27.0882 110.617ZM26.7074 102.651L28.1915 109.4L29.5689 109.098C30.5786 108.876 31.3021 108.431 31.7408 107.764C32.1857 107.096 32.2961 106.259 32.075 105.254L31.9644 104.751C31.7494 103.773 31.3172 103.072 30.6664 102.649C30.0193 102.221 29.2095 102.11 28.2352 102.315L26.7074 102.651Z" fill="black"/>
<path d="M55.186 101.529C55.2659 102.441 55.0523 103.206 54.5438 103.825C54.0389 104.439 53.2787 104.857 52.2617 105.081C51.1617 105.323 50.1993 105.162 49.3774 104.599C48.5598 104.034 48.0202 103.157 47.7586 101.967L47.5813 101.161C47.41 100.382 47.4124 99.6636 47.5898 99.0049C47.7716 98.3454 48.112 97.7958 48.611 97.356C49.1077 96.9129 49.7298 96.6092 50.4772 96.4448C51.4679 96.2269 52.3168 96.3018 53.0238 96.6694C53.73 97.0331 54.2293 97.6435 54.5202 98.5009L53.2847 98.7726C53.0315 98.1281 52.692 97.6959 52.2678 97.4753C51.848 97.2539 51.3182 97.2134 50.6772 97.3543C49.8919 97.527 49.333 97.9235 48.9991 98.5442C48.6695 99.1638 48.6113 99.9552 48.8231 100.918L49.0017 101.73C49.2017 102.64 49.572 103.317 50.1127 103.761C50.6533 104.206 51.3039 104.344 52.063 104.177C52.7462 104.027 53.2389 103.774 53.5409 103.418C53.8465 103.057 53.983 102.518 53.9506 101.801L55.186 101.529Z" fill="black"/>
<path d="M118.342 87.641C118.422 88.5529 118.208 89.318 117.7 89.9369C117.195 90.5508 116.434 90.9695 115.417 91.1931C114.317 91.435 113.355 91.2744 112.533 90.7108C111.716 90.1463 111.176 89.2691 110.914 88.0794L110.737 87.2735C110.566 86.4943 110.568 85.7756 110.746 85.1169C110.927 84.4574 111.268 83.9078 111.767 83.4681C112.263 83.025 112.886 82.7212 113.633 82.5569C114.624 82.339 115.473 82.4138 116.18 82.7814C116.886 83.1451 117.385 83.7555 117.676 84.613L116.44 84.8846C116.187 84.2402 115.848 83.8079 115.424 83.5874C115.004 83.3659 114.474 83.3254 113.833 83.4664C113.048 83.6391 112.489 84.0356 112.155 84.6563C111.825 85.2759 111.767 86.0672 111.979 87.0305L112.157 87.8423C112.357 88.7518 112.728 89.4289 113.268 89.8732C113.809 90.3176 114.46 90.4561 115.219 90.2892C115.902 90.1389 116.395 89.8858 116.697 89.5297C117.002 89.1688 117.139 88.6299 117.106 87.9127L118.342 87.641Z" fill="black"/>
<path d="M84.9977 95.526L81.5795 96.2776L81.3063 98.6941L80.197 98.938L81.418 89.6409L82.3602 89.4337L87.3739 97.3598L86.271 97.6023L84.9977 95.526ZM81.6991 95.2715L84.4722 94.6617L82.198 90.939L81.6991 95.2715Z" fill="black"/>
</svg>
