<svg width="180" height="480" viewBox="0 0 180 480" fill="none" xmlns="http://www.w3.org/2000/svg">
<path d="M134.403 380.965L150.06 469.593L159.908 467.86L144.251 379.232L134.403 380.965Z" fill="#2E80D0" stroke="black"/>
<path d="M35.6572 380.181L20 468.809L29.8481 470.542L45.5052 381.914L35.6572 380.181Z" fill="#2E80D0" stroke="black"/>
<path d="M150.636 418.368H29.6357V427.351H150.636V418.368Z" fill="#2E80D0" stroke="black"/>
<path d="M36.1251 64H28.1251L28.1251 409H36.1251V64Z" fill="#8E6041" stroke="black"/>
<path d="M151.125 63H143.125V409H151.125V63Z" fill="#8E6041" stroke="black"/>
<path d="M28.1357 61.075L68.878 9.5H110.394L151.136 61.075V113.624L110.396 164.204H68.875L28.1357 113.624V61.075Z" fill="#E9AE6C" stroke="black"/>
<path d="M49.1357 61.994L68.9765 11.4961H109.295L129.136 61.994V100.638L102.408 131.266H74.8687L49.1357 100.643V61.994Z" fill="#E9AE6C" stroke="black"/>
<path d="M70.1357 60.9738L83.0092 17.4849H96.2703L110.136 60.9791V84.6979L96.3757 104.318H82.9068L70.1357 84.7073V60.9738Z" fill="#E9AE6C" stroke="black"/>
<path d="M138.379 64.8936V58.5073H140.185C140.741 58.5073 141.234 58.6301 141.661 58.8757C142.089 59.1214 142.419 59.4708 142.65 59.924C142.885 60.3773 143.003 60.8978 143.006 61.4855V61.8934C143.006 62.4958 142.889 63.0236 142.655 63.4769C142.423 63.9301 142.091 64.2781 141.657 64.5208C141.226 64.7634 140.724 64.8877 140.15 64.8936H138.379ZM139.222 59.2003V64.205H140.11C140.761 64.205 141.266 64.0032 141.626 63.5996C141.99 63.1961 142.171 62.6215 142.171 61.8759V61.503C142.171 60.7779 142 60.215 141.657 59.8143C141.317 59.4108 140.834 59.2062 140.207 59.2003H139.222Z" fill="black"/>
<path d="M38.3787 64.8936V58.5073H40.1847C40.7407 58.5073 41.2337 58.6301 41.6607 58.8757C42.0887 59.1214 42.4187 59.4708 42.6497 59.924C42.8847 60.3773 43.0027 60.8978 43.0057 61.4855V61.8934C43.0057 62.4958 42.8887 63.0236 42.6547 63.4769C42.4227 63.9301 42.0907 64.2781 41.6567 64.5208C41.2257 64.7634 40.7237 64.8877 40.1497 64.8936H38.3787ZM39.2217 59.2003V64.205H40.1097C40.7607 64.205 41.2657 64.0032 41.6257 63.5996C41.9897 63.1961 42.1707 62.6215 42.1707 61.8759V61.503C42.1707 60.7779 41.9997 60.215 41.6567 59.8143C41.3167 59.4108 40.8337 59.2062 40.2067 59.2003H39.2217Z" fill="black"/>
<path d="M64.0847 62.8672C64.0057 63.5427 63.7557 64.0646 63.3337 64.4331C62.9147 64.7986 62.3567 64.9814 61.6587 64.9814C60.9037 64.9814 60.2967 64.7109 59.8397 64.1699C59.3857 63.629 59.1587 62.9052 59.1587 61.9988V61.3847C59.1587 60.7911 59.2637 60.2692 59.4747 59.8188C59.6887 59.3686 59.9907 59.0235 60.3807 58.7837C60.7697 58.541 61.2207 58.4197 61.7337 58.4197C62.4137 58.4197 62.9587 58.6097 63.3687 58.9899C63.7787 59.3671 64.0177 59.8905 64.0847 60.5601H63.2367C63.1637 60.0513 63.0037 59.6829 62.7577 59.4548C62.5147 59.2267 62.1737 59.1127 61.7337 59.1127C61.1947 59.1127 60.7717 59.3115 60.4637 59.7092C60.1587 60.1069 60.0067 60.6727 60.0067 61.4066V62.0251C60.0067 62.7181 60.1517 63.2694 60.4417 63.6787C60.7317 64.0881 61.1377 64.2927 61.6587 64.2927C62.1277 64.2927 62.4867 64.1875 62.7357 63.9769C62.9877 63.7635 63.1547 63.3936 63.2367 62.8672H64.0847Z" fill="black"/>
<path d="M122.085 62.8672C122.006 63.5427 121.756 64.0646 121.334 64.4331C120.915 64.7986 120.357 64.9814 119.659 64.9814C118.904 64.9814 118.297 64.7109 117.84 64.1699C117.386 63.629 117.159 62.9052 117.159 61.9988V61.3847C117.159 60.7911 117.264 60.2692 117.475 59.8188C117.689 59.3686 117.991 59.0235 118.381 58.7837C118.77 58.541 119.221 58.4197 119.734 58.4197C120.414 58.4197 120.959 58.6097 121.369 58.9899C121.779 59.3671 122.018 59.8905 122.085 60.5601H121.237C121.164 60.0513 121.004 59.6829 120.758 59.4548C120.515 59.2267 120.174 59.1127 119.734 59.1127C119.195 59.1127 118.772 59.3115 118.464 59.7092C118.159 60.1069 118.007 60.6727 118.007 61.4066V62.0251C118.007 62.7181 118.152 63.2694 118.442 63.6787C118.732 64.0881 119.138 64.2927 119.659 64.2927C120.128 64.2927 120.487 64.1875 120.736 63.9769C120.988 63.7635 121.155 63.3936 121.237 62.8672H122.085Z" fill="black"/>
<path d="M90.9117 63.2268H88.2307L87.6287 64.8936H86.7587L89.2017 58.5073H89.9407L92.3877 64.8936H91.5227L90.9117 63.2268ZM88.4857 62.5338H90.6607L89.5717 59.5468L88.4857 62.5338Z" fill="black"/>
<path d="M27.6357 390.422L27.6357 427.85H37.6357L37.6357 390.422H27.6357Z" fill="#2E80D0" stroke="black"/>
<path d="M142.636 390.422V427.85H152.636V390.422H142.636Z" fill="#2E80D0" stroke="black"/>
<rect x="81" y="10" width="17" height="154" fill="black"/>
</svg>
