<svg width="100" height="129" viewBox="0 0 100 129" fill="none" xmlns="http://www.w3.org/2000/svg">
<path d="M8.5 47.34L36.3474 12H64.6526L92.5 47.34V83.3432L64.6555 118H36.3445L8.5 83.3432V47.34Z" fill="#E9AE6C" stroke="black"/>
<path d="M22.5 47.5787L36.1672 13H63.8328L77.5 47.5787V74.0472L59.1069 95H40.2074L22.5 74.0525V47.5787Z" fill="#E9AE6C" stroke="black"/>
<path d="M37.5 47.0713L46.2533 17H55.0718L64.5 47.0765V63.4807L55.1765 77H46.1516L37.5 63.49V47.0713Z" fill="#E9AE6C" stroke="black"/>
<path d="M84 49.5V45.5H85.171C85.5315 45.5 85.8511 45.5769 86.1279 45.7307C86.4054 45.8846 86.6194 46.1035 86.7692 46.3873C86.9216 46.6712 86.9981 46.9973 87 47.3653V47.6208C87 47.9982 86.9242 48.3288 86.7724 48.6127C86.622 48.8965 86.4067 49.1145 86.1253 49.2665C85.8459 49.4185 85.5204 49.4963 85.1483 49.5H84ZM84.5466 45.934V49.0687H85.1223C85.5444 49.0687 85.8718 48.9423 86.1052 48.6895C86.3413 48.4368 86.4586 48.0769 86.4586 47.6099V47.3763C86.4586 46.9222 86.3477 46.5696 86.1253 46.3186C85.9049 46.0659 85.5918 45.9377 85.1852 45.934H84.5466Z" fill="black"/>
<path d="M15 49.5V45.5H16.5613C17.0419 45.5 17.4681 45.5769 17.8373 45.7307C18.2073 45.8846 18.4926 46.1035 18.6923 46.3873C18.8954 46.6712 18.9974 46.9973 19 47.3653V47.6208C19 47.9982 18.8989 48.3288 18.6966 48.6127C18.496 48.8965 18.209 49.1145 17.8338 49.2665C17.4612 49.4185 17.0272 49.4963 16.531 49.5H15ZM15.7288 45.934V49.0687H16.4964C17.0592 49.0687 17.4958 48.9423 17.807 48.6895C18.1217 48.4368 18.2782 48.0769 18.2782 47.6099V47.3763C18.2782 46.9222 18.1303 46.5696 17.8338 46.3186C17.5399 46.0659 17.1223 45.9377 16.5803 45.934H15.7288Z" fill="black"/>
<path d="M33 48.2112C32.9519 48.623 32.7996 48.9411 32.5426 49.1658C32.2875 49.3886 31.9476 49.5 31.5225 49.5C31.0627 49.5 30.6931 49.3351 30.4147 49.0053C30.1382 48.6756 30 48.2344 30 47.6818V47.3075C30 46.9456 30.064 46.6274 30.1925 46.3529C30.3228 46.0784 30.5067 45.8681 30.7442 45.7219C30.9811 45.574 31.2558 45.5 31.5682 45.5C31.9823 45.5 32.3143 45.6158 32.5639 45.8476C32.8136 46.0775 32.9592 46.3966 33 46.8048H32.4836C32.4391 46.4946 32.3417 46.27 32.1918 46.131C32.0438 45.992 31.8362 45.9224 31.5682 45.9224C31.24 45.9224 30.9823 46.0436 30.7948 46.2861C30.609 46.5285 30.5164 46.8734 30.5164 47.3208V47.6979C30.5164 48.1203 30.6048 48.4563 30.7814 48.7059C30.958 48.9554 31.2052 49.0802 31.5225 49.0802C31.8082 49.0802 32.0268 49.016 32.1784 48.8877C32.3319 48.7576 32.4336 48.5321 32.4836 48.2112H33Z" fill="black"/>
<path d="M73 48.2112C72.9359 48.623 72.7328 48.9411 72.3902 49.1658C72.0499 49.3886 71.5968 49.5 71.03 49.5C70.417 49.5 69.9241 49.3351 69.553 49.0053C69.1843 48.6756 69 48.2344 69 47.6818V47.3075C69 46.9456 69.0853 46.6274 69.2566 46.3529C69.4304 46.0784 69.6756 45.8681 69.9923 45.7219C70.3082 45.574 70.6744 45.5 71.091 45.5C71.6431 45.5 72.0857 45.6158 72.4186 45.8476C72.7515 46.0775 72.9456 46.3966 73 46.8048H72.3114C72.2521 46.4946 72.1222 46.27 71.9224 46.131C71.7251 45.992 71.4482 45.9224 71.091 45.9224C70.6533 45.9224 70.3098 46.0436 70.0597 46.2861C69.812 46.5285 69.6886 46.8734 69.6886 47.3208V47.6979C69.6886 48.1203 69.8063 48.4563 70.0418 48.7059C70.2773 48.9554 70.607 49.0802 71.03 49.0802C71.4109 49.0802 71.7024 49.016 71.9046 48.8877C72.1092 48.7576 72.2448 48.5321 72.3114 48.2112H73Z" fill="black"/>
<path d="M51.2134 48.4561H49.7845L49.4637 49.5H49L50.302 45.5H50.6959L52 49.5H51.539L51.2134 48.4561ZM49.9204 48.0219H51.0796L50.4992 46.1511L49.9204 48.0219Z" fill="black"/>
</svg>
