<svg width="144" height="173" viewBox="0 0 144 173" fill="none" xmlns="http://www.w3.org/2000/svg">
<path d="M10.5 60.575L51.2422 9H92.7578L133.5 60.575V113.124L92.7607 163.704H51.2393L10.5 113.124V60.575Z" fill="white" stroke="black"/>
<path d="M31.5 61.494L51.3408 10.9961H91.6592L111.5 61.494V100.138L84.7727 130.766H57.2329L31.5 100.143V61.494Z" fill="white" stroke="black"/>
<path d="M52.5 60.4738L65.3734 16.9849H78.6346L92.5 60.4791V84.1979L78.74 103.818H65.2711L52.5 84.2073V60.4738Z" fill="white" stroke="black"/>
<path d="M120.743 64.3936V58.0073H122.549C123.105 58.0073 123.598 58.1301 124.025 58.3757C124.453 58.6214 124.783 58.9708 125.014 59.424C125.249 59.8773 125.367 60.3978 125.37 60.9855V61.3934C125.37 61.9958 125.253 62.5236 125.019 62.9769C124.787 63.4301 124.455 63.7781 124.021 64.0208C123.59 64.2634 123.088 64.3877 122.514 64.3936H120.743ZM121.586 58.7003V63.705H122.474C123.125 63.705 123.63 63.5032 123.99 63.0996C124.354 62.6961 124.535 62.1215 124.535 61.3759V61.003C124.535 60.2779 124.364 59.715 124.021 59.3143C123.681 58.9108 123.198 58.7062 122.571 58.7003H121.586Z" fill="black"/>
<path d="M20.7429 64.3936V58.0073H22.5489C23.1049 58.0073 23.5979 58.1301 24.0249 58.3757C24.4529 58.6214 24.7829 58.9708 25.0139 59.424C25.2489 59.8773 25.3669 60.3978 25.3699 60.9855V61.3934C25.3699 61.9958 25.2529 62.5236 25.0189 62.9769C24.7869 63.4301 24.4549 63.7781 24.0209 64.0208C23.5899 64.2634 23.0879 64.3877 22.5139 64.3936H20.7429ZM21.5859 58.7003V63.705H22.4739C23.1249 63.705 23.6299 63.5032 23.9899 63.0996C24.3539 62.6961 24.5349 62.1215 24.5349 61.3759V61.003C24.5349 60.2779 24.3639 59.715 24.0209 59.3143C23.6809 58.9108 23.1979 58.7062 22.5709 58.7003H21.5859Z" fill="black"/>
<path d="M46.449 62.3672C46.37 63.0427 46.12 63.5646 45.698 63.9331C45.279 64.2986 44.7209 64.4814 44.0229 64.4814C43.2679 64.4814 42.6609 64.2109 42.2039 63.6699C41.7499 63.129 41.5229 62.4052 41.5229 61.4988V60.8847C41.5229 60.2911 41.628 59.7692 41.839 59.3188C42.053 58.8686 42.3549 58.5235 42.7449 58.2837C43.1339 58.041 43.585 57.9197 44.098 57.9197C44.778 57.9197 45.323 58.1097 45.733 58.4899C46.143 58.8671 46.382 59.3905 46.449 60.0601H45.601C45.528 59.5513 45.3679 59.1829 45.1219 58.9548C44.8789 58.7267 44.538 58.6127 44.098 58.6127C43.559 58.6127 43.136 58.8115 42.828 59.2092C42.523 59.6069 42.371 60.1727 42.371 60.9066V61.5251C42.371 62.2181 42.516 62.7694 42.806 63.1787C43.096 63.5881 43.5019 63.7927 44.0229 63.7927C44.4919 63.7927 44.851 63.6875 45.1 63.4769C45.352 63.2635 45.519 62.8936 45.601 62.3672H46.449Z" fill="black"/>
<path d="M104.449 62.3672C104.37 63.0427 104.12 63.5646 103.698 63.9331C103.279 64.2986 102.721 64.4814 102.023 64.4814C101.268 64.4814 100.661 64.2109 100.204 63.6699C99.7499 63.129 99.5229 62.4052 99.5229 61.4988V60.8847C99.5229 60.2911 99.628 59.7692 99.839 59.3188C100.053 58.8686 100.355 58.5235 100.745 58.2837C101.134 58.041 101.585 57.9197 102.098 57.9197C102.778 57.9197 103.323 58.1097 103.733 58.4899C104.143 58.8671 104.382 59.3905 104.449 60.0601H103.601C103.528 59.5513 103.368 59.1829 103.122 58.9548C102.879 58.7267 102.538 58.6127 102.098 58.6127C101.559 58.6127 101.136 58.8115 100.828 59.2092C100.523 59.6069 100.371 60.1727 100.371 60.9066V61.5251C100.371 62.2181 100.516 62.7694 100.806 63.1787C101.096 63.5881 101.502 63.7927 102.023 63.7927C102.492 63.7927 102.851 63.6875 103.1 63.4769C103.352 63.2635 103.519 62.8936 103.601 62.3672H104.449Z" fill="black"/>
<path d="M73.276 62.7268H70.595L69.993 64.3936H69.123L71.566 58.0073H72.305L74.752 64.3936H73.887L73.276 62.7268ZM70.8501 62.0338H73.025L71.9361 59.0468L70.8501 62.0338Z" fill="black"/>
</svg>
