<svg width="144" height="173" viewBox="0 0 144 173" fill="none" xmlns="http://www.w3.org/2000/svg">
<path d="M10 60.575L50.7422 9H73V60.4013V115V139.5V163.704H50.7393L10 113.124V60.575Z" fill="#E9AE6C" stroke="black"/>
<path d="M31.5 61.494L51.3408 10.9961H73V63.4999V98.9999V130.766H57.2329L31.5 100.143V61.494Z" fill="#E9AE6C" stroke="black"/>
<path d="M52.5 60.4738L65.3734 16.9849H73V60.4013V85.5001V103.818H65.2711L52.5 84.2073V60.4738Z" fill="#E9AE6C" stroke="black"/>
<path d="M20.7429 64.3936V58.0073H22.5489C23.1049 58.0073 23.5979 58.1301 24.0249 58.3757C24.4529 58.6214 24.7829 58.9708 25.0139 59.424C25.2489 59.8773 25.3669 60.3978 25.3699 60.9855V61.3934C25.3699 61.9958 25.2529 62.5236 25.0189 62.9769C24.7869 63.4301 24.4549 63.7781 24.0209 64.0208C23.5899 64.2634 23.0879 64.3877 22.5139 64.3936H20.7429ZM21.5859 58.7003V63.705H22.4739C23.1249 63.705 23.6299 63.5032 23.9899 63.0996C24.3539 62.6961 24.5349 62.1215 24.5349 61.3759V61.003C24.5349 60.2779 24.3639 59.715 24.0209 59.3143C23.6809 58.9108 23.1979 58.7062 22.5709 58.7003H21.5859Z" fill="black"/>
<path d="M46.449 62.3672C46.37 63.0427 46.12 63.5646 45.698 63.9331C45.279 64.2986 44.7209 64.4814 44.0229 64.4814C43.2679 64.4814 42.6609 64.2109 42.2039 63.6699C41.7499 63.129 41.5229 62.4052 41.5229 61.4988V60.8847C41.5229 60.2911 41.628 59.7692 41.839 59.3188C42.053 58.8686 42.3549 58.5235 42.7449 58.2837C43.1339 58.041 43.585 57.9197 44.098 57.9197C44.778 57.9197 45.323 58.1097 45.733 58.4899C46.143 58.8671 46.382 59.3905 46.449 60.0601H45.601C45.528 59.5513 45.3679 59.1829 45.1219 58.9548C44.8789 58.7267 44.538 58.6127 44.098 58.6127C43.559 58.6127 43.136 58.8115 42.828 59.2092C42.523 59.6069 42.371 60.1727 42.371 60.9066V61.5251C42.371 62.2181 42.516 62.7694 42.806 63.1787C43.096 63.5881 43.5019 63.7927 44.0229 63.7927C44.4919 63.7927 44.851 63.6875 45.1 63.4769C45.352 63.2635 45.519 62.8936 45.601 62.3672H46.449Z" fill="black"/>
<path d="M72.153 63.2195H69.472L68.87 64.8863H68L70.443 58.5H71.182L73.629 64.8863H72.764L72.153 63.2195ZM69.727 62.5264H71.902L70.813 59.5395L69.727 62.5264Z" fill="black"/>
</svg>
