<svg width="144" height="92" viewBox="0 0 144 92" fill="none" xmlns="http://www.w3.org/2000/svg">
<path d="M10.5 64.575L51.2422 13H92.7578L133.5 64.575V78H114H55H10.5V64.575Z" fill="#E9AE6C" stroke="black"/>
<path d="M31.5 65.494L51.3408 14.9961H91.6592L111.5 65.494V77.9999H92H57H31.5V65.494Z" fill="#E9AE6C" stroke="black"/>
<path d="M52.5 64.4738L65.3734 20.9849H78.6346L92.5 64.4791V78.0001H81H66.5H52.5V64.4738Z" fill="#E9AE6C" stroke="black"/>
<path d="M120.743 68.3936V62.0073H122.549C123.105 62.0073 123.598 62.1301 124.025 62.3757C124.453 62.6214 124.783 62.9708 125.014 63.424C125.249 63.8773 125.367 64.3978 125.37 64.9855V65.3934C125.37 65.9958 125.253 66.5236 125.019 66.9769C124.787 67.4301 124.455 67.7781 124.021 68.0208C123.59 68.2634 123.088 68.3877 122.514 68.3936H120.743ZM121.586 62.7003V67.705H122.474C123.125 67.705 123.63 67.5032 123.99 67.0996C124.354 66.6961 124.535 66.1215 124.535 65.3759V65.003C124.535 64.2779 124.364 63.715 124.021 63.3143C123.681 62.9108 123.198 62.7062 122.571 62.7003H121.586Z" fill="black"/>
<path d="M20.7429 68.3936V62.0073H22.5489C23.1049 62.0073 23.5979 62.1301 24.0249 62.3757C24.4529 62.6214 24.7829 62.9708 25.0139 63.424C25.2489 63.8773 25.3669 64.3978 25.3699 64.9855V65.3934C25.3699 65.9958 25.2529 66.5236 25.0189 66.9769C24.7869 67.4301 24.4549 67.7781 24.0209 68.0208C23.5899 68.2634 23.0879 68.3877 22.5139 68.3936H20.7429ZM21.5859 62.7003V67.705H22.4739C23.1249 67.705 23.6299 67.5032 23.9899 67.0996C24.3539 66.6961 24.5349 66.1215 24.5349 65.3759V65.003C24.5349 64.2779 24.3639 63.715 24.0209 63.3143C23.6809 62.9108 23.1979 62.7062 22.5709 62.7003H21.5859Z" fill="black"/>
<path d="M46.449 66.3672C46.37 67.0427 46.12 67.5646 45.698 67.9331C45.279 68.2986 44.7209 68.4814 44.0229 68.4814C43.2679 68.4814 42.6609 68.2109 42.2039 67.6699C41.7499 67.129 41.5229 66.4052 41.5229 65.4988V64.8847C41.5229 64.2911 41.628 63.7692 41.839 63.3188C42.053 62.8686 42.3549 62.5235 42.7449 62.2837C43.1339 62.041 43.585 61.9197 44.098 61.9197C44.778 61.9197 45.323 62.1097 45.733 62.4899C46.143 62.8671 46.382 63.3905 46.449 64.0601H45.601C45.528 63.5513 45.3679 63.1829 45.1219 62.9548C44.8789 62.7267 44.538 62.6127 44.098 62.6127C43.559 62.6127 43.136 62.8115 42.828 63.2092C42.523 63.6069 42.371 64.1727 42.371 64.9066V65.5251C42.371 66.2181 42.516 66.7694 42.806 67.1787C43.096 67.5881 43.5019 67.7927 44.0229 67.7927C44.4919 67.7927 44.851 67.6875 45.1 67.4769C45.352 67.2635 45.519 66.8936 45.601 66.3672H46.449Z" fill="black"/>
<path d="M104.449 66.3672C104.37 67.0427 104.12 67.5646 103.698 67.9331C103.279 68.2986 102.721 68.4814 102.023 68.4814C101.268 68.4814 100.661 68.2109 100.204 67.6699C99.7499 67.129 99.5229 66.4052 99.5229 65.4988V64.8847C99.5229 64.2911 99.628 63.7692 99.839 63.3188C100.053 62.8686 100.355 62.5235 100.745 62.2837C101.134 62.041 101.585 61.9197 102.098 61.9197C102.778 61.9197 103.323 62.1097 103.733 62.4899C104.143 62.8671 104.382 63.3905 104.449 64.0601H103.601C103.528 63.5513 103.368 63.1829 103.122 62.9548C102.879 62.7267 102.538 62.6127 102.098 62.6127C101.559 62.6127 101.136 62.8115 100.828 63.2092C100.523 63.6069 100.371 64.1727 100.371 64.9066V65.5251C100.371 66.2181 100.516 66.7694 100.806 67.1787C101.096 67.5881 101.502 67.7927 102.023 67.7927C102.492 67.7927 102.851 67.6875 103.1 67.4769C103.352 67.2635 103.519 66.8936 103.601 66.3672H104.449Z" fill="black"/>
<path d="M73.2759 66.7268H70.5949L69.9929 68.3936H69.1229L71.5659 62.0073H72.3049L74.7519 68.3936H73.8869L73.2759 66.7268ZM70.8499 66.0338H73.0249L71.9359 63.0468L70.8499 66.0338Z" fill="black"/>
</svg>
