<svg width="73" height="90" viewBox="0 0 73 90" fill="none" xmlns="http://www.w3.org/2000/svg">
<g clip-path="url(#clip0_304_2)">
<g filter="url(#filter0_d_304_2)">
<path d="M23.5367 0.746273C23.9163 0.274418 24.4893 0 25.0949 0L47.9051 0C48.5107 0 49.0837 0.274418 49.4633 0.746273L72.5583 29.451C72.8441 29.8063 73 30.2486 73 30.7047V59.8615C73 60.3241 72.8397 60.7724 72.5463 61.13L49.463 89.2685C49.0831 89.7316 48.5157 90 47.9167 90H25.0833C24.4843 90 23.9169 89.7316 23.537 89.2685L0.453726 61.13C0.160344 60.7724 0 60.3241 0 59.8615L0 30.7047C0 30.2486 0.155861 29.8063 0.441742 29.451L23.5367 0.746273Z" fill="black"/>
<path d="M25.0949 2L47.9051 2L71 30.7047V59.8615L47.9167 88H25.0833L2 59.8615L2 30.7047L25.0949 2Z" stroke="white" stroke-width="4"/>
</g>
<path d="M27.8141 7L45.1859 7L63 29.4938V45.7509H54.6177C52.0085 45.7509 50.0978 48.2086 50.7412 50.7372L52.5695 57.9231H41.2939C39.9372 57.9231 38.673 58.6107 37.9359 59.7497L25.0918 79.5943L10 60.8908L10 29.4938L27.8141 7Z" fill="white" stroke="black" stroke-width="4"/>
<path fill-rule="evenodd" clip-rule="evenodd" d="M11 32C11 32.5523 11.4477 33 12 33H33V47.5109V63.656C33 64.3258 33.6457 64.8063 34.2873 64.6138L37.2873 63.7138C37.7103 63.5869 38 63.1976 38 62.756V33H61C61.5523 33 62 32.5523 62 32V30C62 29.4477 61.5523 29 61 29H37H34H12C11.4477 29 11 29.4477 11 30V32Z" fill="black"/>
<path fill-rule="evenodd" clip-rule="evenodd" d="M11.5451 33C10.9928 33 10.5451 32.5523 10.5451 32V30C10.5451 29.4477 10.9928 29 11.5451 29H33.5451H36.5451H60.5451C61.0974 29 61.5451 29.4477 61.5451 30V32C61.5451 32.5523 61.0974 33 60.5451 33H37.5451V57.806C38.2761 57.1291 39.2438 56.7408 40.2631 56.7408L51.2758 56.7408L49.5298 50.0035C48.8734 47.4707 50.7854 45 53.4019 45H63.5451V49L53.4019 49L55.1479 55.7374C55.8043 58.2702 53.8923 60.7408 51.2758 60.7408L40.2631 60.7408L27.6746 79.8363C26.192 82.0854 22.9552 82.2556 21.2448 80.1745L6 61.6254L9.09025 59.0856L24.335 77.6347L32.6305 65.0514C32.5758 64.9284 32.5451 64.7913 32.5451 64.6452V48.0251V33H11.5451Z" fill="black"/>
</g>
<defs>
<filter id="filter0_d_304_2" x="-4" y="0" width="81" height="98" filterUnits="userSpaceOnUse" color-interpolation-filters="sRGB">
<feFlood flood-opacity="0" result="BackgroundImageFix"/>
<feColorMatrix in="SourceAlpha" type="matrix" values="0 0 0 0 0 0 0 0 0 0 0 0 0 0 0 0 0 0 127 0" result="hardAlpha"/>
<feOffset dy="4"/>
<feGaussianBlur stdDeviation="2"/>
<feComposite in2="hardAlpha" operator="out"/>
<feColorMatrix type="matrix" values="0 0 0 0 0 0 0 0 0 0 0 0 0 0 0 0 0 0 0.25 0"/>
<feBlend mode="normal" in2="BackgroundImageFix" result="effect1_dropShadow_304_2"/>
<feBlend mode="normal" in="SourceGraphic" in2="effect1_dropShadow_304_2" result="shape"/>
</filter>
<clipPath id="clip0_304_2">
<rect width="73" height="90" fill="white"/>
</clipPath>
</defs>
</svg>
