<svg width="193" height="483" viewBox="0 0 193 483" fill="none" xmlns="http://www.w3.org/2000/svg">
<path d="M103 207.5H89V441.5H103V207.5Z" fill="url(#paint0_linear_16_2)" stroke="black" stroke-width="2"/>
<path d="M88 414.5H79V459.5H88V414.5Z" fill="url(#paint1_linear_16_2)" stroke="black" stroke-width="2"/>
<path d="M113 414.5H104V459.5H113V414.5Z" fill="url(#paint2_linear_16_2)" stroke="black" stroke-width="2"/>
<path d="M161 402.5H32V412.5H161V402.5Z" fill="url(#paint3_linear_16_2)" stroke="black" stroke-width="2"/>
<path d="M166 459.5H28V472.5H166V459.5Z" fill="url(#paint4_linear_16_2)" stroke="black" stroke-width="2"/>
<path d="M95.9995 220C99.037 220 101.499 217.538 101.499 214.5C101.499 211.462 99.037 209 95.9995 209C92.9619 209 90.4995 211.462 90.4995 214.5C90.4995 217.538 92.9619 220 95.9995 220Z" fill="#FE0202" stroke="black"/>
<path d="M42.0339 65.7351H34.4195V214.643H42.0339V65.7351Z" fill="url(#paint5_linear_16_2)" stroke="black" stroke-width="2"/>
<path d="M157.03 64.7527H149.415V213.661H157.03V64.7527Z" fill="url(#paint6_linear_16_2)" stroke="black" stroke-width="2"/>
<path d="M43.8985 186.053H32.2565V215.81H43.8985V186.053Z" fill="#FE0202" stroke="black" stroke-width="2"/>
<path d="M158.895 186.303H147.253V216.06H158.895V186.303Z" fill="#FE0202" stroke="black" stroke-width="2"/>
<path d="M158.908 207.053H32.2565V216.868H158.908V207.053Z" fill="#FE0202" stroke="black" stroke-width="2"/>
<path d="M103.396 218.681H89.3965V391.392H103.396V218.681Z" fill="url(#paint7_linear_16_2)" stroke="black" stroke-width="2"/>
<path d="M115.921 390.085H76.9215V425.5H115.921V390.085Z" fill="url(#paint8_linear_16_2)" stroke="black" stroke-width="2"/>
<path d="M110.999 218.254C110.999 226.387 104.298 233.007 95.9994 233.007C87.7005 233.007 80.9995 226.387 80.9995 218.254C80.9995 210.12 87.7005 203.5 95.9994 203.5C104.298 203.5 110.999 210.12 110.999 218.254Z" fill="#FE0202" stroke="black" stroke-width="2"/>
<path d="M95.9995 219.438C97.104 219.438 97.9995 218.557 97.9995 217.469C97.9995 216.382 97.104 215.5 95.9995 215.5C94.8949 215.5 93.9995 216.382 93.9995 217.469C93.9995 218.557 94.8949 219.438 95.9995 219.438Z" fill="black"/>
<path d="M34.4995 62.6734L75.242 11H116.757L157.5 62.6734V115.324L116.76 166H75.2391L34.4995 115.324V62.6734Z" fill="#E9AE6C" stroke="black"/>
<path d="M55.4995 63.5945L75.3405 13H115.659L135.5 63.5945V102.313L108.772 133H81.2327L55.4995 102.318V63.5945Z" fill="#E9AE6C" stroke="black"/>
<path d="M76.4995 62.5723L89.3732 19H102.634L116.5 62.5776V86.3424L102.739 106H89.2709L76.4995 86.3518V62.5723Z" fill="#E9AE6C" stroke="black"/>
<path d="M144.742 66.5V60.1016H146.548C147.104 60.1016 147.597 60.2246 148.024 60.4707C148.452 60.7168 148.782 61.0669 149.013 61.521C149.248 61.9751 149.366 62.4966 149.369 63.0854V63.4941C149.369 64.0977 149.252 64.6265 149.018 65.0806C148.786 65.5347 148.454 65.8833 148.02 66.1265C147.589 66.3696 147.087 66.4941 146.513 66.5H144.742ZM145.585 60.7959V65.8101H146.473C147.124 65.8101 147.629 65.6079 147.989 65.2036C148.353 64.7993 148.534 64.2236 148.534 63.4766V63.103C148.534 62.3765 148.363 61.8125 148.02 61.4111C147.68 61.0068 147.197 60.8018 146.57 60.7959H145.585Z" fill="black"/>
<path d="M44.7424 66.5V60.1016H46.5484C47.1044 60.1016 47.5974 60.2246 48.0244 60.4707C48.4524 60.7168 48.7824 61.0669 49.0134 61.521C49.2484 61.9751 49.3664 62.4966 49.3694 63.0854V63.4941C49.3694 64.0977 49.2524 64.6265 49.0184 65.0806C48.7864 65.5347 48.4544 65.8833 48.0204 66.1265C47.5894 66.3696 47.0874 66.4941 46.5134 66.5H44.7424ZM45.5854 60.7959V65.8101H46.4734C47.1244 65.8101 47.6294 65.6079 47.9894 65.2036C48.3534 64.7993 48.5344 64.2236 48.5344 63.4766V63.103C48.5344 62.3765 48.3634 61.8125 48.0204 61.4111C47.6804 61.0068 47.1974 60.8018 46.5704 60.7959H45.5854Z" fill="black"/>
<path d="M70.4485 64.4697C70.3695 65.1465 70.1195 65.6694 69.6975 66.0386C69.2785 66.4048 68.7205 66.5879 68.0225 66.5879C67.2675 66.5879 66.6605 66.3169 66.2035 65.7749C65.7495 65.2329 65.5225 64.5078 65.5225 63.5996V62.9844C65.5225 62.3896 65.6275 61.8667 65.8385 61.4155C66.0525 60.9644 66.3545 60.6187 66.7445 60.3784C67.1335 60.1353 67.5845 60.0137 68.0975 60.0137C68.7775 60.0137 69.3225 60.2041 69.7325 60.585C70.1425 60.9629 70.3815 61.4873 70.4485 62.1582H69.6005C69.5275 61.6484 69.3675 61.2793 69.1215 61.0508C68.8785 60.8223 68.5375 60.708 68.0975 60.708C67.5585 60.708 67.1355 60.9072 66.8275 61.3057C66.5225 61.7041 66.3705 62.271 66.3705 63.0063V63.626C66.3705 64.3203 66.5155 64.8726 66.8055 65.2827C67.0955 65.6929 67.5015 65.8979 68.0225 65.8979C68.4915 65.8979 68.8505 65.7925 69.0995 65.5815C69.3515 65.3677 69.5185 64.9971 69.6005 64.4697H70.4485Z" fill="black"/>
<path d="M128.448 64.4697C128.369 65.1465 128.119 65.6694 127.697 66.0386C127.278 66.4048 126.72 66.5879 126.022 66.5879C125.267 66.5879 124.66 66.3169 124.203 65.7749C123.749 65.2329 123.522 64.5078 123.522 63.5996V62.9844C123.522 62.3896 123.627 61.8667 123.838 61.4155C124.052 60.9644 124.354 60.6187 124.744 60.3784C125.133 60.1353 125.584 60.0137 126.097 60.0137C126.777 60.0137 127.322 60.2041 127.732 60.585C128.142 60.9629 128.381 61.4873 128.448 62.1582H127.6C127.527 61.6484 127.367 61.2793 127.121 61.0508C126.878 60.8223 126.537 60.708 126.097 60.708C125.558 60.708 125.135 60.9072 124.827 61.3057C124.522 61.7041 124.37 62.271 124.37 63.0063V63.626C124.37 64.3203 124.515 64.8726 124.805 65.2827C125.095 65.6929 125.501 65.8979 126.022 65.8979C126.491 65.8979 126.85 65.7925 127.099 65.5815C127.351 65.3677 127.518 64.9971 127.6 64.4697H128.448Z" fill="black"/>
<path d="M97.2754 64.8301H94.5944L93.9924 66.5H93.1224L95.5654 60.1016H96.3044L98.7514 66.5H97.8864L97.2754 64.8301ZM94.8494 64.1357H97.0244L95.9354 61.1431L94.8494 64.1357Z" fill="black"/>
<defs>
<linearGradient id="paint0_linear_16_2" x1="88.031" y1="322.655" x2="104.031" y2="322.655" gradientUnits="userSpaceOnUse">
<stop stop-color="#363636"/>
<stop offset="0.490794" stop-color="#868686"/>
<stop offset="1" stop-color="#363636"/>
</linearGradient>
<linearGradient id="paint1_linear_16_2" x1="78.021" y1="436.633" x2="89.021" y2="436.633" gradientUnits="userSpaceOnUse">
<stop stop-color="#363636"/>
<stop offset="0.490794" stop-color="#868686"/>
<stop offset="1" stop-color="#363636"/>
</linearGradient>
<linearGradient id="paint2_linear_16_2" x1="103.021" y1="436.633" x2="114.021" y2="436.633" gradientUnits="userSpaceOnUse">
<stop stop-color="#363636"/>
<stop offset="0.490794" stop-color="#868686"/>
<stop offset="1" stop-color="#363636"/>
</linearGradient>
<linearGradient id="paint3_linear_16_2" x1="96.5" y1="411.9" x2="96.5" y2="403.1" gradientUnits="userSpaceOnUse">
<stop stop-color="#363636"/>
<stop offset="0.490794" stop-color="#868686"/>
<stop offset="1" stop-color="#363636"/>
</linearGradient>
<linearGradient id="paint4_linear_16_2" x1="97" y1="471.5" x2="97" y2="460.5" gradientUnits="userSpaceOnUse">
<stop stop-color="#363636"/>
<stop offset="0.490794" stop-color="#868686"/>
<stop offset="1" stop-color="#363636"/>
</linearGradient>
<linearGradient id="paint5_linear_16_2" x1="33.4375" y1="139.009" x2="43.0515" y2="139.009" gradientUnits="userSpaceOnUse">
<stop stop-color="#363636"/>
<stop offset="0.490794" stop-color="#868686"/>
<stop offset="1" stop-color="#363636"/>
</linearGradient>
<linearGradient id="paint6_linear_16_2" x1="148.433" y1="138.027" x2="158.048" y2="138.027" gradientUnits="userSpaceOnUse">
<stop stop-color="#363636"/>
<stop offset="0.490794" stop-color="#868686"/>
<stop offset="1" stop-color="#363636"/>
</linearGradient>
<linearGradient id="paint7_linear_16_2" x1="88.4265" y1="303.67" x2="104.426" y2="303.67" gradientUnits="userSpaceOnUse">
<stop stop-color="#363636"/>
<stop offset="0.490794" stop-color="#868686"/>
<stop offset="1" stop-color="#363636"/>
</linearGradient>
<linearGradient id="paint8_linear_16_2" x1="75.9995" y1="407.5" x2="116.999" y2="407.5" gradientUnits="userSpaceOnUse">
<stop stop-color="#363636"/>
<stop offset="0.490794" stop-color="#868686"/>
<stop offset="1" stop-color="#363636"/>
</linearGradient>
</defs>
</svg>
