<svg width="430" height="361" viewBox="0 0 430 361" fill="none" xmlns="http://www.w3.org/2000/svg">
<g clip-path="url(#clip0_15_10)">
<path d="M221.761 88.4237H207.761V322.424H221.761V88.4237Z" fill="url(#paint0_linear_15_10)" stroke="black" stroke-width="2"/>
<path d="M206.761 295.424H197.761V340.424H206.761V295.424Z" fill="url(#paint1_linear_15_10)" stroke="black" stroke-width="2"/>
<path d="M231.761 295.424H222.761V340.424H231.761V295.424Z" fill="url(#paint2_linear_15_10)" stroke="black" stroke-width="2"/>
<path d="M279.761 283.424H150.761V293.424H279.761V283.424Z" fill="url(#paint3_linear_15_10)" stroke="black" stroke-width="2"/>
<path d="M284.761 340.424H146.761V353.424H284.761V340.424Z" fill="url(#paint4_linear_15_10)" stroke="black" stroke-width="2"/>
<path d="M212.302 98.9873C211.774 101.979 213.772 104.831 216.763 105.359C219.755 105.886 222.607 103.889 223.135 100.897C223.662 97.906 221.665 95.0534 218.673 94.5259C215.682 93.9984 212.829 95.9959 212.302 98.9873Z" fill="#FE0202" stroke="black"/>
<path d="M373.594 72.6293L374.916 65.1306L228.271 39.273L226.948 46.7717L373.594 72.6293Z" fill="url(#paint5_linear_15_10)" stroke="black" stroke-width="2"/>
<path d="M354.593 186.049L355.915 178.55L209.269 152.693L207.947 160.191L354.593 186.049Z" fill="url(#paint6_linear_15_10)" stroke="black" stroke-width="2"/>
<path d="M254.78 53.5726L256.802 42.1074L227.497 36.9402L225.475 48.4053L254.78 53.5726Z" fill="#FE0202" stroke="black" stroke-width="2"/>
<path d="M234.565 166.779L236.587 155.314L207.282 150.147L205.26 161.612L234.565 166.779Z" fill="#FE0202" stroke="black" stroke-width="2"/>
<path d="M214.128 163.189L236.121 38.4609L226.455 36.7565L204.462 161.484L214.128 163.189Z" fill="#FE0202" stroke="black" stroke-width="2"/>
<path d="M212.316 106.501L214.747 92.7136L44.6602 62.7227L42.2291 76.51L212.316 106.501Z" fill="url(#paint7_linear_15_10)" stroke="black" stroke-width="2"/>
<path d="M41.3413 89.0716L48.1136 50.6641L13.2365 44.5143L6.46424 82.9218L41.3413 89.0716Z" fill="url(#paint8_linear_15_10)" stroke="black" stroke-width="2"/>
<path d="M211.416 114.063C203.407 112.65 198.051 104.902 199.492 96.7286C200.933 88.5557 208.617 83.106 216.626 84.5183C224.636 85.9308 229.992 93.6795 228.551 101.852C227.11 110.025 219.427 115.475 211.416 114.063Z" fill="#FE0202" stroke="black" stroke-width="2"/>
<path d="M212.855 99.0847C212.663 100.172 213.376 101.207 214.447 101.396C215.518 101.585 216.542 100.856 216.733 99.7686C216.925 98.6808 216.212 97.6459 215.141 97.457C214.07 97.2681 213.047 97.9969 212.855 99.0847Z" fill="black"/>
<path d="M377.918 65.7411L421.731 114.838L414.522 155.722L356.559 186.872L304.708 177.73L261.876 128.809L269.086 87.9192L326.067 56.5984L377.918 65.7411Z" fill="#E9AE6C" stroke="black"/>
<path d="M373.364 86.262L419.744 114.587L412.743 154.293L359.472 165.047L321.342 158.323L295.762 126.673L300.544 99.5522L335.229 79.5377L373.364 86.262Z" fill="#E9AE6C" stroke="black"/>
<path d="M370.724 107.121L411.399 127.365L409.096 140.424L363.773 146.512L340.369 142.385L323.399 125.42L325.738 112.157L347.306 102.991L370.724 107.121Z" fill="#E9AE6C" stroke="black"/>
<path d="M355.006 173.645L361.307 174.756L360.993 176.534C360.897 177.082 360.69 177.546 360.373 177.924C360.057 178.303 359.655 178.567 359.167 178.715C358.679 178.868 358.145 178.894 357.565 178.794L357.162 178.723C356.568 178.619 356.067 178.411 355.661 178.102C355.254 177.795 354.968 177.407 354.804 176.938C354.64 176.471 354.604 175.955 354.698 175.389L355.006 173.645ZM360.477 175.465L355.539 174.595L355.384 175.469C355.271 176.11 355.383 176.643 355.718 177.067C356.053 177.496 356.589 177.774 357.325 177.904L357.693 177.969C358.408 178.095 358.993 178.025 359.448 177.757C359.905 177.492 360.191 177.052 360.306 176.435L360.477 175.465Z" fill="black"/>
<path d="M372.37 75.1638L378.672 76.2749L378.358 78.0535C378.261 78.601 378.055 79.0652 377.738 79.4429C377.422 79.8217 377.019 80.0859 376.532 80.2346C376.044 80.3871 375.51 80.4128 374.93 80.3135L374.527 80.2425C373.933 80.1377 373.432 79.9306 373.026 79.6213C372.619 79.314 372.333 78.9265 372.169 78.4569C372.004 77.9902 371.969 77.4742 372.063 76.9079L372.37 75.1638ZM377.841 76.9845L372.903 76.1138L372.749 76.9883C372.636 77.6294 372.748 78.1619 373.083 78.5866C373.418 79.0153 373.954 79.2935 374.689 79.4232L375.057 79.4881C375.773 79.6143 376.358 79.5438 376.813 79.2757C377.27 79.0111 377.556 78.571 377.67 77.9546L377.841 76.9845Z" fill="black"/>
<path d="M369.906 100.832C369.253 100.637 368.782 100.3 368.491 99.8199C368.204 99.3437 368.12 98.7623 368.241 98.0749C368.372 97.3314 368.745 96.7807 369.358 96.4247C369.97 96.0718 370.724 95.9741 371.618 96.1318L372.224 96.2387C372.81 96.3419 373.307 96.5362 373.714 96.8223C374.121 97.1114 374.409 97.4688 374.578 97.8946C374.75 98.3199 374.792 98.7852 374.703 99.2904C374.585 99.9601 374.302 100.464 373.856 100.801C373.413 101.14 372.855 101.284 372.182 101.233L372.33 100.398C372.844 100.415 373.236 100.321 373.503 100.119C373.771 99.9191 373.942 99.6032 374.019 99.1698C374.112 98.639 373.99 98.1879 373.651 97.8153C373.311 97.4458 372.78 97.1977 372.055 97.07L371.445 96.9624C370.761 96.8418 370.192 96.8887 369.738 97.1031C369.284 97.3174 369.011 97.6817 368.921 98.1948C368.839 98.6566 368.881 99.0285 369.045 99.3103C369.212 99.5956 369.548 99.8245 370.053 99.9968L369.906 100.832Z" fill="black"/>
<path d="M359.834 157.951C359.182 157.755 358.71 157.418 358.42 156.939C358.132 156.463 358.049 155.881 358.17 155.194C358.301 154.45 358.673 153.9 359.286 153.544C359.899 153.191 360.652 153.093 361.547 153.251L362.153 153.358C362.738 153.461 363.235 153.655 363.643 153.941C364.05 154.23 364.338 154.588 364.507 155.014C364.679 155.439 364.72 155.904 364.631 156.409C364.513 157.079 364.231 157.583 363.785 157.92C363.341 158.258 362.783 158.403 362.111 158.352L362.258 157.517C362.773 157.534 363.164 157.44 363.432 157.238C363.699 157.038 363.871 156.722 363.947 156.289C364.041 155.758 363.918 155.307 363.579 154.934C363.24 154.565 362.708 154.317 361.984 154.189L361.374 154.081C360.69 153.961 360.121 154.008 359.666 154.222C359.212 154.436 358.94 154.801 358.849 155.314C358.768 155.776 358.809 156.147 358.974 156.429C359.141 156.715 359.477 156.943 359.982 157.116L359.834 157.951Z" fill="black"/>
<path d="M364.893 127.189L365.358 124.548L363.818 123.666L363.969 122.809L369.846 126.326L369.718 127.054L362.992 128.352L363.142 127.5L364.893 127.189ZM365.998 124.92L365.62 127.062L368.756 126.509L365.998 124.92Z" fill="black"/>
</g>
<defs>
<linearGradient id="paint0_linear_15_10" x1="206.792" y1="203.579" x2="222.792" y2="203.579" gradientUnits="userSpaceOnUse">
<stop stop-color="#363636"/>
<stop offset="0.490794" stop-color="#868686"/>
<stop offset="1" stop-color="#363636"/>
</linearGradient>
<linearGradient id="paint1_linear_15_10" x1="196.782" y1="317.557" x2="207.782" y2="317.557" gradientUnits="userSpaceOnUse">
<stop stop-color="#363636"/>
<stop offset="0.490794" stop-color="#868686"/>
<stop offset="1" stop-color="#363636"/>
</linearGradient>
<linearGradient id="paint2_linear_15_10" x1="221.782" y1="317.557" x2="232.782" y2="317.557" gradientUnits="userSpaceOnUse">
<stop stop-color="#363636"/>
<stop offset="0.490794" stop-color="#868686"/>
<stop offset="1" stop-color="#363636"/>
</linearGradient>
<linearGradient id="paint3_linear_15_10" x1="215.261" y1="292.824" x2="215.261" y2="284.024" gradientUnits="userSpaceOnUse">
<stop stop-color="#363636"/>
<stop offset="0.490794" stop-color="#868686"/>
<stop offset="1" stop-color="#363636"/>
</linearGradient>
<linearGradient id="paint4_linear_15_10" x1="215.761" y1="352.424" x2="215.761" y2="341.424" gradientUnits="userSpaceOnUse">
<stop stop-color="#363636"/>
<stop offset="0.490794" stop-color="#868686"/>
<stop offset="1" stop-color="#363636"/>
</linearGradient>
<linearGradient id="paint5_linear_15_10" x1="302.926" y1="51.4396" x2="301.257" y2="60.9076" gradientUnits="userSpaceOnUse">
<stop stop-color="#363636"/>
<stop offset="0.490794" stop-color="#868686"/>
<stop offset="1" stop-color="#363636"/>
</linearGradient>
<linearGradient id="paint6_linear_15_10" x1="283.924" y1="164.859" x2="282.255" y2="174.328" gradientUnits="userSpaceOnUse">
<stop stop-color="#363636"/>
<stop offset="0.490794" stop-color="#868686"/>
<stop offset="1" stop-color="#363636"/>
</linearGradient>
<linearGradient id="paint7_linear_15_10" x1="131.218" y1="77.0002" x2="128.44" y2="92.7571" gradientUnits="userSpaceOnUse">
<stop stop-color="#363636"/>
<stop offset="0.490794" stop-color="#868686"/>
<stop offset="1" stop-color="#363636"/>
</linearGradient>
<linearGradient id="paint8_linear_15_10" x1="31.1233" y1="46.732" x2="24.0037" y2="87.1091" gradientUnits="userSpaceOnUse">
<stop stop-color="#363636"/>
<stop offset="0.490794" stop-color="#868686"/>
<stop offset="1" stop-color="#363636"/>
</linearGradient>
<clipPath id="clip0_15_10">
<rect width="430" height="360" fill="white" transform="translate(0 0.527832)"/>
</clipPath>
</defs>
</svg>
