<svg width="193" height="483" viewBox="0 0 193 483" fill="none" xmlns="http://www.w3.org/2000/svg">
<path d="M42.0338 65.3562H34.4194V214.264H42.0338V65.3562Z" fill="url(#paint0_linear_16_56)" stroke="black" stroke-width="2"/>
<path d="M157.03 64.3738H149.415V213.282H157.03V64.3738Z" fill="url(#paint1_linear_16_56)" stroke="black" stroke-width="2"/>
<path d="M43.8983 185.674H32.2563V215.431H43.8983V185.674Z" fill="#FE0202" stroke="black" stroke-width="2"/>
<path d="M158.895 185.924H147.253V215.681H158.895V185.924Z" fill="#FE0202" stroke="black" stroke-width="2"/>
<path d="M158.908 206.674H32.2563V216.489H158.908V206.674Z" fill="#FE0202" stroke="black" stroke-width="2"/>
<path d="M103 216.121H89V343.121H103V216.121Z" fill="url(#paint2_linear_16_56)" stroke="black" stroke-width="2"/>
<path d="M58 216.121H44V397.121H58V216.121Z" fill="url(#paint3_linear_16_56)" stroke="black" stroke-width="2"/>
<path d="M147 216.121H133V397.121H147V216.121Z" fill="url(#paint4_linear_16_56)" stroke="black" stroke-width="2"/>
<path d="M34.4993 62.2945L75.2418 10.6211H116.757L157.499 62.2945V114.945L116.76 165.621H75.2388L34.4993 114.945V62.2945Z" fill="#E9AE6C" stroke="black"/>
<path d="M55.4993 63.2156L75.3403 12.6211H115.658L135.499 63.2156V101.934L108.772 132.621H81.2325L55.4993 101.939V63.2156Z" fill="#E9AE6C" stroke="black"/>
<path d="M76.4993 62.1934L89.3729 18.6211H102.634L116.499 62.1987V85.9635L102.739 105.621H89.2706L76.4993 85.9729V62.1934Z" fill="#E9AE6C" stroke="black"/>
<path d="M144.742 66.1211V59.7227H146.548C147.104 59.7227 147.597 59.8457 148.024 60.0918C148.452 60.3379 148.782 60.688 149.013 61.1421C149.248 61.5962 149.366 62.1177 149.369 62.7065V63.1152C149.369 63.7188 149.252 64.2476 149.018 64.7017C148.786 65.1558 148.454 65.5044 148.02 65.7476C147.589 65.9907 147.087 66.1152 146.513 66.1211H144.742ZM145.585 60.417V65.4312H146.473C147.124 65.4312 147.629 65.229 147.989 64.8247C148.353 64.4204 148.534 63.8447 148.534 63.0977V62.7241C148.534 61.9976 148.363 61.4336 148.02 61.0322C147.68 60.6279 147.197 60.4229 146.57 60.417H145.585Z" fill="black"/>
<path d="M44.7422 66.1211V59.7227H46.5482C47.1042 59.7227 47.5972 59.8457 48.0242 60.0918C48.4522 60.3379 48.7822 60.688 49.0132 61.1421C49.2482 61.5962 49.3662 62.1177 49.3692 62.7065V63.1152C49.3692 63.7188 49.2522 64.2476 49.0182 64.7017C48.7862 65.1558 48.4542 65.5044 48.0202 65.7476C47.5892 65.9907 47.0872 66.1152 46.5132 66.1211H44.7422ZM45.5852 60.417V65.4312H46.4732C47.1242 65.4312 47.6292 65.229 47.9892 64.8247C48.3532 64.4204 48.5342 63.8447 48.5342 63.0977V62.7241C48.5342 61.9976 48.3632 61.4336 48.0202 61.0322C47.6802 60.6279 47.1972 60.4229 46.5702 60.417H45.5852Z" fill="black"/>
<path d="M70.4482 64.0908C70.3692 64.7676 70.1192 65.2905 69.6972 65.6597C69.2782 66.0259 68.7202 66.209 68.0222 66.209C67.2672 66.209 66.6602 65.938 66.2032 65.396C65.7492 64.854 65.5222 64.1289 65.5222 63.2207V62.6055C65.5222 62.0107 65.6272 61.4878 65.8382 61.0366C66.0522 60.5855 66.3542 60.2398 66.7442 59.9995C67.1332 59.7564 67.5842 59.6348 68.0972 59.6348C68.7772 59.6348 69.3222 59.8252 69.7322 60.2061C70.1422 60.584 70.3812 61.1084 70.4482 61.7793H69.6002C69.5272 61.2695 69.3672 60.9004 69.1212 60.6719C68.8782 60.4434 68.5372 60.3291 68.0972 60.3291C67.5582 60.3291 67.1352 60.5283 66.8272 60.9268C66.5222 61.3252 66.3702 61.8921 66.3702 62.6274V63.2471C66.3702 63.9414 66.5152 64.4937 66.8052 64.9038C67.0952 65.314 67.5012 65.519 68.0222 65.519C68.4912 65.519 68.8502 65.4136 69.0992 65.2026C69.3512 64.9888 69.5182 64.6182 69.6002 64.0908H70.4482Z" fill="black"/>
<path d="M128.448 64.0908C128.369 64.7676 128.119 65.2905 127.697 65.6597C127.278 66.0259 126.72 66.209 126.022 66.209C125.267 66.209 124.66 65.938 124.203 65.396C123.749 64.854 123.522 64.1289 123.522 63.2207V62.6055C123.522 62.0107 123.627 61.4878 123.838 61.0366C124.052 60.5855 124.354 60.2398 124.744 59.9995C125.133 59.7564 125.584 59.6348 126.097 59.6348C126.777 59.6348 127.322 59.8252 127.732 60.2061C128.142 60.584 128.381 61.1084 128.448 61.7793H127.6C127.527 61.2695 127.367 60.9004 127.121 60.6719C126.878 60.4434 126.537 60.3291 126.097 60.3291C125.558 60.3291 125.135 60.5283 124.827 60.9268C124.522 61.3252 124.37 61.8921 124.37 62.6274V63.2471C124.37 63.9414 124.515 64.4937 124.805 64.9038C125.095 65.314 125.501 65.519 126.022 65.519C126.491 65.519 126.85 65.4136 127.099 65.2026C127.351 64.9888 127.518 64.6182 127.6 64.0908H128.448Z" fill="black"/>
<path d="M97.2753 64.4512H94.5943L93.9923 66.1211H93.1223L95.5653 59.7227H96.3043L98.7513 66.1211H97.8863L97.2753 64.4512ZM94.8493 63.7568H97.0243L95.9353 60.7642L94.8493 63.7568Z" fill="black"/>
<path d="M115 322.121H76V371.121H115V322.121Z" fill="url(#paint5_linear_16_56)" stroke="black" stroke-width="2"/>
<path d="M165 454.121H27V467.121H165V454.121Z" fill="url(#paint6_linear_16_56)" stroke="black" stroke-width="2"/>
<path d="M160 397.121H31V407.121H160V397.121Z" fill="url(#paint7_linear_16_56)" stroke="black" stroke-width="2"/>
<path d="M87 409.121H78V454.121H87V409.121Z" fill="url(#paint8_linear_16_56)" stroke="black" stroke-width="2"/>
<path d="M112 409.121H103V454.121H112V409.121Z" fill="url(#paint9_linear_16_56)" stroke="black" stroke-width="2"/>
<defs>
<linearGradient id="paint0_linear_16_56" x1="33.4374" y1="138.63" x2="43.0514" y2="138.63" gradientUnits="userSpaceOnUse">
<stop stop-color="#363636"/>
<stop offset="0.490794" stop-color="#868686"/>
<stop offset="1" stop-color="#363636"/>
</linearGradient>
<linearGradient id="paint1_linear_16_56" x1="148.433" y1="137.648" x2="158.048" y2="137.648" gradientUnits="userSpaceOnUse">
<stop stop-color="#363636"/>
<stop offset="0.490794" stop-color="#868686"/>
<stop offset="1" stop-color="#363636"/>
</linearGradient>
<linearGradient id="paint2_linear_16_56" x1="88.03" y1="278.616" x2="104.03" y2="278.616" gradientUnits="userSpaceOnUse">
<stop stop-color="#363636"/>
<stop offset="0.490794" stop-color="#868686"/>
<stop offset="1" stop-color="#363636"/>
</linearGradient>
<linearGradient id="paint3_linear_16_56" x1="43.03" y1="305.189" x2="59.03" y2="305.189" gradientUnits="userSpaceOnUse">
<stop stop-color="#363636"/>
<stop offset="0.490794" stop-color="#868686"/>
<stop offset="1" stop-color="#363636"/>
</linearGradient>
<linearGradient id="paint4_linear_16_56" x1="132.03" y1="305.189" x2="148.03" y2="305.189" gradientUnits="userSpaceOnUse">
<stop stop-color="#363636"/>
<stop offset="0.490794" stop-color="#868686"/>
<stop offset="1" stop-color="#363636"/>
</linearGradient>
<linearGradient id="paint5_linear_16_56" x1="75.078" y1="346.216" x2="116.078" y2="346.216" gradientUnits="userSpaceOnUse">
<stop stop-color="#363636"/>
<stop offset="0.490794" stop-color="#868686"/>
<stop offset="1" stop-color="#363636"/>
</linearGradient>
<linearGradient id="paint6_linear_16_56" x1="96" y1="466.121" x2="96" y2="455.121" gradientUnits="userSpaceOnUse">
<stop stop-color="#363636"/>
<stop offset="0.490794" stop-color="#868686"/>
<stop offset="1" stop-color="#363636"/>
</linearGradient>
<linearGradient id="paint7_linear_16_56" x1="95.5" y1="406.521" x2="95.5" y2="397.721" gradientUnits="userSpaceOnUse">
<stop stop-color="#363636"/>
<stop offset="0.490794" stop-color="#868686"/>
<stop offset="1" stop-color="#363636"/>
</linearGradient>
<linearGradient id="paint8_linear_16_56" x1="77.021" y1="431.254" x2="88.021" y2="431.254" gradientUnits="userSpaceOnUse">
<stop stop-color="#363636"/>
<stop offset="0.490794" stop-color="#868686"/>
<stop offset="1" stop-color="#363636"/>
</linearGradient>
<linearGradient id="paint9_linear_16_56" x1="102.021" y1="431.254" x2="113.021" y2="431.254" gradientUnits="userSpaceOnUse">
<stop stop-color="#363636"/>
<stop offset="0.490794" stop-color="#868686"/>
<stop offset="1" stop-color="#363636"/>
</linearGradient>
</defs>
</svg>
