<svg width="430" height="361" viewBox="0 0 430 361" fill="none" xmlns="http://www.w3.org/2000/svg">
<g clip-path="url(#clip0_1_2)">
<path d="M221.761 88.0171H207.761V322.017H221.761V88.0171Z" fill="url(#paint0_linear_1_2)" stroke="black" stroke-width="2"/>
<path d="M206.761 295.017H197.761V340.017H206.761V295.017Z" fill="url(#paint1_linear_1_2)" stroke="black" stroke-width="2"/>
<path d="M231.761 295.017H222.761V340.017H231.761V295.017Z" fill="url(#paint2_linear_1_2)" stroke="black" stroke-width="2"/>
<path d="M279.761 283.017H150.761V293.017H279.761V283.017Z" fill="url(#paint3_linear_1_2)" stroke="black" stroke-width="2"/>
<path d="M284.761 340.017H146.761V353.017H284.761V340.017Z" fill="url(#paint4_linear_1_2)" stroke="black" stroke-width="2"/>
<path d="M216.241 97.7591C215.714 94.7677 212.861 92.7703 209.87 93.2977C206.878 93.8252 204.881 96.6778 205.408 99.6693C205.936 102.661 208.789 104.658 211.78 104.131C214.771 103.603 216.769 100.751 216.241 97.7591Z" fill="#FE0202" stroke="black"/>
<path d="M73.691 177.693L75.0132 185.191L221.659 159.334L220.337 151.835L73.691 177.693Z" fill="url(#paint5_linear_1_2)" stroke="black" stroke-width="2"/>
<path d="M52.7547 64.6143L54.0769 72.113L200.723 46.2554L199.4 38.7567L52.7547 64.6143Z" fill="url(#paint6_linear_1_2)" stroke="black" stroke-width="2"/>
<path d="M191.857 154.963L193.879 166.428L223.184 161.261L221.162 149.796L191.857 154.963Z" fill="#FE0202" stroke="black" stroke-width="2"/>
<path d="M172.134 41.6701L174.156 53.1353L203.461 47.968L201.439 36.5029L172.134 41.6701Z" fill="#FE0202" stroke="black" stroke-width="2"/>
<path d="M192.567 38.054L214.56 162.782L224.226 161.077L202.233 36.3496L192.567 38.054Z" fill="#FE0202" stroke="black" stroke-width="2"/>
<path d="M213.658 90.7034L216.089 104.491L386.176 74.4998L383.745 60.7125L213.658 90.7034Z" fill="url(#paint7_linear_1_2)" stroke="black" stroke-width="2"/>
<path d="M380.283 48.6047L387.055 87.0122L421.932 80.8624L415.16 42.4549L380.283 48.6047Z" fill="url(#paint8_linear_1_2)" stroke="black" stroke-width="2"/>
<path d="M211.917 83.2902C219.927 81.878 227.61 87.3276 229.051 95.5005C230.492 103.673 225.136 111.422 217.127 112.834C209.116 114.247 201.433 108.797 199.992 100.624C198.551 92.4514 203.907 84.7027 211.917 83.2902Z" fill="#FE0202" stroke="black" stroke-width="2"/>
<path d="M215.688 97.8565C215.496 96.7687 214.473 96.04 213.402 96.2288C212.331 96.4177 211.618 97.4526 211.81 98.5404C212.001 99.6282 213.025 100.357 214.096 100.168C215.167 99.9792 215.88 98.9443 215.688 97.8565Z" fill="black"/>
<path d="M71.9841 185.644L14.0209 154.494L6.8119 113.609L50.6254 64.5128L102.476 55.3702L159.457 86.691L166.667 127.581L123.835 176.502L71.9841 185.644Z" fill="#E9AE6C" stroke="black"/>
<path d="M69.2448 164.803L15.9735 154.049L8.97238 114.344L55.3529 86.0186L93.483 79.2952L128.345 100.288L133.127 127.409L107.38 158.079L69.2448 164.803Z" fill="#E9AE6C" stroke="black"/>
<path d="M64.5914 144.3L19.4456 139.188L17.1429 126.129L57.6508 104.907L81.0545 100.78L102.803 110.918L105.142 124.181L88.0096 140.171L64.5914 144.3Z" fill="#E9AE6C" stroke="black"/>
<path d="M56.6092 76.4116L50.308 77.5227L49.9944 75.7441C49.8978 75.1966 49.9334 74.6897 50.1016 74.2265C50.2696 73.7623 50.5571 73.3765 50.9642 73.0701C51.3706 72.7598 51.8637 72.5531 52.443 72.4479L52.8455 72.3769C53.4399 72.2721 53.981 72.2955 54.4688 72.4471C54.9563 72.5967 55.3573 72.8631 55.6721 73.2483C55.9864 73.6305 56.1962 74.1033 56.3016 74.6675L56.6092 76.4116ZM50.8454 76.572L55.7834 75.7013L55.6292 74.8267C55.5161 74.1856 55.2293 73.7234 54.7686 73.4391C54.3073 73.1508 53.7089 73.0725 52.9732 73.2023L52.6053 73.2671C51.8898 73.3933 51.3641 73.6596 51.0284 74.0671C50.6893 74.4722 50.5712 74.9834 50.6743 75.6019L50.8454 76.572Z" fill="black"/>
<path d="M73.974 174.892L67.6729 176.003L67.3592 174.225C67.2627 173.677 67.2982 173.17 67.4664 172.707C67.6345 172.243 67.9219 171.857 68.329 171.551C68.7354 171.241 69.2285 171.034 69.8079 170.929L70.2103 170.858C70.8048 170.753 71.3459 170.776 71.8337 170.928C72.3212 171.077 72.7221 171.344 73.037 171.729C73.3513 172.111 73.561 172.584 73.6665 173.148L73.974 174.892ZM68.2102 175.053L73.1482 174.182L72.994 173.307C72.881 172.666 72.5942 172.204 72.1335 171.92C71.6721 171.632 71.0738 171.553 70.3381 171.683L69.9702 171.748C69.2547 171.874 68.729 172.14 68.3932 172.548C68.0541 172.953 67.9361 173.464 68.0392 174.083L68.2102 175.053Z" fill="black"/>
<path d="M67.5107 149.929C68.1909 149.89 68.7493 150.045 69.1862 150.397C69.6196 150.746 69.8968 151.263 70.018 151.951C70.1491 152.694 69.9876 153.339 69.5332 153.883C69.0783 154.425 68.4036 154.774 67.5092 154.932L66.9034 155.039C66.3176 155.142 65.7844 155.129 65.3034 155C64.822 154.867 64.4291 154.63 64.1247 154.288C63.8178 153.947 63.6197 153.524 63.5306 153.019C63.4126 152.349 63.5054 151.779 63.8093 151.309C64.1103 150.84 64.5852 150.513 65.2343 150.331L65.3816 151.166C64.8922 151.326 64.5565 151.548 64.3742 151.83C64.1913 152.109 64.138 152.465 64.2144 152.898C64.308 153.429 64.5776 153.811 65.0235 154.045C65.4689 154.276 66.0535 154.327 66.7777 154.2L67.388 154.092C68.0717 153.971 68.5904 153.733 68.9439 153.376C69.2976 153.019 69.4289 152.584 69.3385 152.071C69.257 151.609 69.0909 151.274 68.8399 151.065C68.5855 150.854 68.1916 150.754 67.658 150.765L67.5107 149.929Z" fill="black"/>
<path d="M57.4392 92.8106C58.1194 92.7709 58.6778 92.9263 59.1146 93.2778C59.548 93.6268 59.8252 94.1445 59.9465 94.8319C60.0776 95.5755 59.9161 96.2203 59.4617 96.7645C59.0067 97.3057 58.3321 97.6552 57.4377 97.8129L56.8318 97.9197C56.2461 98.023 55.7129 98.0104 55.2319 97.8809C54.7505 97.7485 54.3576 97.5111 54.0532 97.1688C53.7463 96.8279 53.5482 96.4049 53.4591 95.8997C53.341 95.23 53.4339 94.6602 53.7378 94.1903C54.0388 93.7209 54.5137 93.3945 55.1628 93.212L55.31 94.0471C54.8207 94.2075 54.4849 94.4292 54.3026 94.7111C54.1198 94.9901 54.0665 95.3458 54.1429 95.7791C54.2365 96.3099 54.5061 96.6919 54.952 96.926C55.3973 97.1572 55.982 97.2084 56.7061 97.0808L57.3164 96.9732C58.0002 96.8526 58.5189 96.6139 58.8724 96.2571C59.226 95.9003 59.3574 95.4648 59.2669 94.9517C59.1855 94.4899 59.0194 94.1546 58.7683 93.946C58.514 93.735 58.12 93.6349 57.5864 93.6457L57.4392 92.8106Z" fill="black"/>
<path d="M63.2072 123.448L63.6728 126.088L65.4218 126.391L65.5729 127.247L58.8475 125.953L58.7192 125.225L64.5955 121.704L64.7457 122.556L63.2072 123.448ZM62.9446 125.957L62.567 123.815L59.8089 125.407L62.9446 125.957Z" fill="black"/>
</g>
<defs>
<linearGradient id="paint0_linear_1_2" x1="206.792" y1="203.172" x2="222.792" y2="203.172" gradientUnits="userSpaceOnUse">
<stop stop-color="#363636"/>
<stop offset="0.490794" stop-color="#868686"/>
<stop offset="1" stop-color="#363636"/>
</linearGradient>
<linearGradient id="paint1_linear_1_2" x1="196.782" y1="317.15" x2="207.782" y2="317.15" gradientUnits="userSpaceOnUse">
<stop stop-color="#363636"/>
<stop offset="0.490794" stop-color="#868686"/>
<stop offset="1" stop-color="#363636"/>
</linearGradient>
<linearGradient id="paint2_linear_1_2" x1="221.782" y1="317.15" x2="232.782" y2="317.15" gradientUnits="userSpaceOnUse">
<stop stop-color="#363636"/>
<stop offset="0.490794" stop-color="#868686"/>
<stop offset="1" stop-color="#363636"/>
</linearGradient>
<linearGradient id="paint3_linear_1_2" x1="215.261" y1="292.417" x2="215.261" y2="283.617" gradientUnits="userSpaceOnUse">
<stop stop-color="#363636"/>
<stop offset="0.490794" stop-color="#868686"/>
<stop offset="1" stop-color="#363636"/>
</linearGradient>
<linearGradient id="paint4_linear_1_2" x1="215.761" y1="352.017" x2="215.761" y2="341.017" gradientUnits="userSpaceOnUse">
<stop stop-color="#363636"/>
<stop offset="0.490794" stop-color="#868686"/>
<stop offset="1" stop-color="#363636"/>
</linearGradient>
<linearGradient id="paint5_linear_1_2" x1="147.345" y1="173.435" x2="145.675" y2="163.967" gradientUnits="userSpaceOnUse">
<stop stop-color="#363636"/>
<stop offset="0.490794" stop-color="#868686"/>
<stop offset="1" stop-color="#363636"/>
</linearGradient>
<linearGradient id="paint6_linear_1_2" x1="126.409" y1="60.3562" x2="124.739" y2="50.8872" gradientUnits="userSpaceOnUse">
<stop stop-color="#363636"/>
<stop offset="0.490794" stop-color="#868686"/>
<stop offset="1" stop-color="#363636"/>
</linearGradient>
<linearGradient id="paint7_linear_1_2" x1="299.955" y1="90.6878" x2="297.177" y2="74.9309" gradientUnits="userSpaceOnUse">
<stop stop-color="#363636"/>
<stop offset="0.490794" stop-color="#868686"/>
<stop offset="1" stop-color="#363636"/>
</linearGradient>
<linearGradient id="paint8_linear_1_2" x1="404.366" y1="84.8961" x2="397.246" y2="44.519" gradientUnits="userSpaceOnUse">
<stop stop-color="#363636"/>
<stop offset="0.490794" stop-color="#868686"/>
<stop offset="1" stop-color="#363636"/>
</linearGradient>
<clipPath id="clip0_1_2">
<rect width="430" height="360" fill="white" transform="translate(0 0.121094)"/>
</clipPath>
</defs>
</svg>
